<svg xmlns="http://www.w3.org/2000/svg" viewBox="0 0 52.61 50.93"><defs><style>.cls-1{fill:#ffda00;}</style></defs><g id="Capa_2" data-name="Capa 2"><g id="Capa_2-2" data-name="Capa 2"><path class="cls-1" d="M27.65,50.93c-5.62,0-15.16-2.53-20-9.67a1.92,1.92,0,1,1,3.19-2.15c4,5.85,12.2,8,16.71,8h.32C44.38,46,48.75,32.46,48.75,25.46a21.68,21.68,0,0,0-6.31-15.37,20.33,20.33,0,0,0-14.5-6.23c-6.36,0-11.6,2-15.56,6A22.91,22.91,0,0,0,6,24.92,1.93,1.93,0,0,1,4,26.87H4A1.92,1.92,0,0,1,2.09,25,26.74,26.74,0,0,1,9.64,7.17C14.28,2.48,20.61,0,27.94,0A24.18,24.18,0,0,1,45.19,7.38a25.53,25.53,0,0,1,7.42,18.11c0,8.22-5.13,24.15-24.54,25.43h-.42"/><path class="cls-1" d="M27.36,37.83a26.63,26.63,0,0,1-6.56-.68c-1.35-.4-4.17-2.14-4.56-4.37a40.13,40.13,0,0,1-.11-7.4c0-.79.06-1.55.08-2.23A5.41,5.41,0,0,1,21.78,18H32.9a5.71,5.71,0,0,1,5.31,5.13,72.41,72.41,0,0,1-.16,9.63c-.33,2.11-2.66,3.9-4.21,4.39a24.31,24.31,0,0,1-6.48.7m-5.58-16a1.61,1.61,0,0,0-1.71,1.4c0,.7-.05,1.49-.08,2.3A39,39,0,0,0,20,32.11a4.54,4.54,0,0,0,1.84,1.33,27.62,27.62,0,0,0,10.8,0,3.18,3.18,0,0,0,1.56-1.33,66.14,66.14,0,0,0,.11-8.83,1.89,1.89,0,0,0-1.45-1.45ZM18.14,23.2h0Z"/><path class="cls-1" d="M32.9,21.5A1.59,1.59,0,0,1,31.31,20l-.09-3.69c0-.86-.3-1.8-2-2.17a11.54,11.54,0,0,0-3.75,0,2.4,2.4,0,0,0-2,2.4l0,3.47a1.6,1.6,0,0,1-1.6,1.57h0a1.59,1.59,0,0,1-1.57-1.61l0-3.51A5.65,5.65,0,0,1,24.55,11a14.15,14.15,0,0,1,5.31,0,5.3,5.3,0,0,1,4.55,5.19l.09,3.71a1.6,1.6,0,0,1-1.56,1.63h0"/><path class="cls-1" d="M9.54,33.17a.14.14,0,0,1-.11.14L6.21,34.7l-.39,1.22L5,38.54l0,.12a.26.26,0,0,1,0,.1v0a.13.13,0,0,1-.13.13c-.06,0-.11,0-.12-.13L3.8,35.92l-.33-1.08a.24.24,0,0,0-.06-.11L.06,33.31h0A.2.2,0,0,1,0,33.2.15.15,0,0,1,.11,33l3.24-1.32,0,0,1.1-3.45.18-.54a.14.14,0,0,1,0-.06.1.1,0,0,1,0-.07.11.11,0,0,1,.08,0c.06,0,.11.05.13.13l1.14,3.87a.15.15,0,0,0,.1.13l1.47.61,1.7.7.07,0a.14.14,0,0,1,.1.11.07.07,0,0,1,0,.05"/></g></g></svg>