<svg xmlns="http://www.w3.org/2000/svg" viewBox="0 0 52.87 54.68"><defs><style>.cls-1{fill:#5006f2;}</style></defs><g id="Capa_2" data-name="Capa 2"><g id="Capa_2-2" data-name="Capa 2"><path class="cls-1" d="M49.38,54.68H36.76a3.49,3.49,0,0,1-3.48-3.49L33.2,36.63H24.07V51.16a3.48,3.48,0,0,1-1,2.5,3.52,3.52,0,0,1-2.51,1L5.83,54.43a1.93,1.93,0,0,1,0-3.85h0l14.33.21V36.26a3.49,3.49,0,0,1,3.49-3.49h9.86a3.5,3.5,0,0,1,3.49,3.46l.08,14.59H49.05a1.93,1.93,0,0,1,3.82.37,3.49,3.49,0,0,1-3.49,3.49m-12.24-3.5Zm-16.55-.39Z"/><path class="cls-1" d="M12.48,40.21a.13.13,0,0,0,0-.06.19.19,0,0,0-.13-.14l-.09,0L10,39.05l-1.93-.8A.18.18,0,0,1,8,38.09L6.47,33a.17.17,0,0,0-.16-.16.18.18,0,0,0-.11,0,.15.15,0,0,0-.06.09.31.31,0,0,0,0,.08l-.23.71-1.44,4.5-.08,0L.14,40a.19.19,0,0,0-.14.23.18.18,0,0,0,.08.14h0c.06.05,4.38,1.87,4.38,1.87a.17.17,0,0,1,.08.13L6.1,47.56a.17.17,0,0,0,.34,0v0a1,1,0,0,0,0-.12l0-.16,1.6-5,4.2-1.81a.2.2,0,0,0,.15-.2"/><path class="cls-1" d="M50.94,53.11A1.92,1.92,0,0,1,49,51.19V22.66L28.39,4,8.17,22.65V30a1.93,1.93,0,0,1-3.86,0V22.49a3.53,3.53,0,0,1,1.11-2.55L26,.92a3.52,3.52,0,0,1,4.71,0l21,19a3.55,3.55,0,0,1,1.14,2.59V51.19a1.92,1.92,0,0,1-1.93,1.92M28.64,3.75h0"/></g></g></svg>