<svg xmlns="http://www.w3.org/2000/svg" viewBox="0 0 61.13 61.13"><defs><style>.cls-1{fill:#ffda00;}.cls-2{fill:#fff;}</style></defs><g id="Capa_2" data-name="Capa 2"><g id="Capa_2-2" data-name="Capa 2"><rect class="cls-1" width="61.13" height="61.13" rx="11.4"/><path class="cls-2" d="M15.09,44.46A19.24,19.24,0,0,1,12,39.83l6.43-4.38A13.15,13.15,0,0,0,39.5,40.13c2.08,1.53,4.19,3,6.27,4.54a18.39,18.39,0,0,1-2.91,2.66l0,0,0,0a23.77,23.77,0,0,1-6.71,3.28h0a22,22,0,0,1-9.94.28A21.06,21.06,0,0,1,15.09,44.46Z"/><path class="cls-2" d="M25.05,18.75a12.71,12.71,0,0,0-6.32,6.32l-.06,0L12.4,20.55A20.81,20.81,0,0,1,34.88,10.26,21.51,21.51,0,0,1,43,13.94c.53.54,2.21,1.45,2.08,2.2A4.72,4.72,0,0,0,44,17.25a5,5,0,0,0-1.12,1.12,4.72,4.72,0,0,0-1.11,1.12,4.54,4.54,0,0,0-1.12,1.11c-.21.06-.32.24-.46.39-.45.55-.8-.16-1.19-.38a7.51,7.51,0,0,0-1.66-1.19h0A12.89,12.89,0,0,0,25.05,18.75Z"/><path class="cls-2" d="M45.77,44.67c-2.08-1.52-4.19-3-6.27-4.54a10.61,10.61,0,0,0,2.21-2.85A6.76,6.76,0,0,0,42.8,35.1c.32-.68.32-.68-.42-.68-1.32,0-2.64,0-4,0H31.74c-1.55.13-1.16-.43-1.2-1.65V29.53a17.2,17.2,0,0,1,.08-2.69c.33-.21.7-.06,1-.13h19c.36,0,.66.06.66.52v3.41a21.32,21.32,0,0,1-4,12.23v0h0A17.6,17.6,0,0,1,45.77,44.67Z"/><path class="cls-2" d="M12.4,20.55l6.27,4.54a13.44,13.44,0,0,0-.25,10.36L12,39.83A20.54,20.54,0,0,1,12.4,20.55Z"/></g></g></svg>