<svg xmlns="http://www.w3.org/2000/svg" viewBox="0 0 81.01 59.5"><defs><style>.cls-1{fill:#ffda00;}</style></defs><g id="Capa_2" data-name="Capa 2"><g id="Capa_2-2" data-name="Capa 2"><path class="cls-1" d="M81,37.1a.11.11,0,0,1-.08.11l-2.43,1-.29.92-.63,2,0,.1a.25.25,0,0,1,0,.07v0a.1.1,0,0,1-.1.09c-.05,0-.08,0-.1-.09l-.65-2.16-.25-.82a.12.12,0,0,0,0-.08l-2.53-1.07h0a.22.22,0,0,1,0-.08A.14.14,0,0,1,73.9,37l2.44-1,0,0,.83-2.59.14-.42v0a.1.1,0,0,1,0,0,.07.07,0,0,1,.06,0,.11.11,0,0,1,.1.09l.86,2.93a.11.11,0,0,0,.07.09l1.12.46,1.28.53.05,0a.09.09,0,0,1,.07.08.06.06,0,0,1,0,0"/><path class="cls-1" d="M43.17,59.5a2.53,2.53,0,0,1-1.25-.32,2.73,2.73,0,0,1-1.4-2.41V45.11c0-11.77,0-22.87.05-34.19A11.1,11.1,0,0,1,51.56.06C56.66,0,61.85,0,66.87,0H75a4.73,4.73,0,0,1,3.51,1.28,4.84,4.84,0,0,1,1.28,3.6q0,12.42,0,24.86a2.36,2.36,0,0,1-4.72,0q0-12.43,0-24.87V4.72H75c-2.71,0-5.41,0-8.12,0-5,0-10.17,0-15.24,0A6.36,6.36,0,0,0,45.28,11c-.08,11.3-.07,22.4-.05,34.15v7.59c.21-.13.42-.24.64-.35,3.26-1.57,6.69-1.63,9.65-1.56,4.08.1,8.24.08,12.26.06,2.34,0,4.67,0,7,0h.27V45.5a2.36,2.36,0,0,1,4.72,0v5.17a4.85,4.85,0,0,1-1.31,3.6,5,5,0,0,1-3.71,1.28c-2.31,0-4.63,0-6.94,0-4.06,0-8.26,0-12.4-.07-3.08-.07-5.4.09-7.49,1.09a8.1,8.1,0,0,0-1.43,1.06,19.07,19.07,0,0,1-1.88,1.44A2.68,2.68,0,0,1,43.17,59.5Z"/><path class="cls-1" d="M36.6,59.5a2.68,2.68,0,0,1-1.44-.42,19.07,19.07,0,0,1-1.88-1.44,8.27,8.27,0,0,0-1.44-1.06c-2.09-1-4.5-1.16-7.48-1.08-4,.09-8.13.08-12.09.06-2.41,0-4.83,0-7.26,0H5A4.9,4.9,0,0,1,1.3,54.26,4.88,4.88,0,0,1,0,50.67H0Q0,27.78,0,4.88A4.88,4.88,0,0,1,1.28,1.29,4.76,4.76,0,0,1,4.79,0H13.2c4.92,0,10,0,15,0a11.1,11.1,0,0,1,11,10.86c.07,11.6.06,23,0,35.05v10.8a2.74,2.74,0,0,1-1.41,2.42A2.56,2.56,0,0,1,36.6,59.5ZM25.69,50.76a18.44,18.44,0,0,1,8.2,1.58c.23.11.44.23.64.35V46c0-12.06,0-23.44,0-35a6.35,6.35,0,0,0-6.34-6.18c-5-.07-10-.06-14.94,0q-4.21,0-8.42,0H4.73v.14q0,22.92,0,45.81h0a.81.81,0,0,0,0,.16H5c2.44,0,4.88,0,7.32,0,3.92,0,8,0,12-.05Q25,50.76,25.69,50.76Zm-20.94.35h0Z"/></g></g></svg>