<svg xmlns="http://www.w3.org/2000/svg" viewBox="0 0 61.13 61.13"><defs><style>.cls-1{fill:#ffda00;}.cls-2{fill:#fff;}</style></defs><g id="Capa_2" data-name="Capa 2"><g id="Capa_2-2" data-name="Capa 2"><rect class="cls-1" width="61.13" height="61.13" rx="11.4"/><path class="cls-2" d="M11.48,29.67q0-9,0-17.89c0-.26,0-.31.31-.31H29.67q0,8.9,0,17.81c0,.31-.08.39-.39.39Z"/><path class="cls-2" d="M31.53,11.48H49.35c.26,0,.31,0,.31.31q0,8.94,0,17.89H32c-.34,0-.42-.09-.42-.43C31.54,23.33,31.53,17.4,31.53,11.48Z"/><path class="cls-2" d="M29.67,49.65H11.78c-.26,0-.31,0-.31-.31q0-8.91,0-17.82H29.25c.34,0,.43.08.43.42Q29.67,40.8,29.67,49.65Z"/><path class="cls-2" d="M49.65,31.53q0,8.91,0,17.82c0,.26,0,.31-.31.31H31.53c0-5.9,0-11.8,0-17.7,0-.34.08-.43.42-.42Z"/></g></g></svg>