<svg xmlns="http://www.w3.org/2000/svg" viewBox="0 0 60.21 62.86"><defs><style>.cls-1{fill:#fff;}</style></defs><g id="Capa_2" data-name="Capa 2"><g id="Capa_2-2" data-name="Capa 2"><path class="cls-1" d="M33.8,4.35a.1.1,0,0,1-.08.12L31.23,5.55l-.3,1-.64,2,0,.1a.31.31,0,0,1,0,.08h0a.11.11,0,0,1-.11.1s-.08,0-.09-.1l-.68-2.21-.26-.84a.13.13,0,0,0-.05-.09s-2.56-1.07-2.6-1.1h0a.12.12,0,0,1-.05-.08.13.13,0,0,1,.09-.13l2.51-1,0,0L29.89.54,30,.12v0a.13.13,0,0,1,0-.06l.06,0c.05,0,.09,0,.1.1l.9,3a.11.11,0,0,0,.08.1l1.14.47,1.32.54.06,0a.13.13,0,0,1,.07.08v0"/><path class="cls-1" d="M30.17,62.86A30.33,30.33,0,0,1,22.81,62,30.09,30.09,0,0,1,14.62,7a29.1,29.1,0,0,1,4.6-2.24,2.35,2.35,0,1,1,1.67,4.4A24.76,24.76,0,0,0,17.05,11,25.38,25.38,0,0,0,24,57.38,25.38,25.38,0,0,0,38.26,8.73a2.35,2.35,0,0,1,1.51-4.46,30.09,30.09,0,0,1-9.6,58.59Z"/><path class="cls-1" d="M8.53,25.46c3.84,3.33,7.36,6.41,10.92,9.44a1.61,1.61,0,0,1,.63,1.86c-.34,1.21-.59,2.45-.88,3.67-.77,3.36-1.55,6.73-2.39,10.38L18.3,50c3.63-2.19,7.26-4.36,10.86-6.58a1.59,1.59,0,0,1,1.94,0c2.52,1.58,5.08,3.09,7.62,4.62l4.65,2.8c-.06-.47-.07-.72-.13-1-1-4.25-2-8.5-3-12.73a1.94,1.94,0,0,1,.7-2.31c3.19-2.64,6.3-5.38,9.43-8.09.39-.33.76-.69,1.33-1.22-4.93-.41-9.55-.81-14.17-1.15A1.87,1.87,0,0,1,35.66,23c-1.6-4-3.29-7.88-5-11.82-.14-.34-.34-.66-.61-1.2-1.71,4-3.48,7.77-4.86,11.65-.77,2.16-2,2.75-4.1,2.84-4.08.18-8.15.66-12.6,1"/></g></g></svg>