<svg xmlns="http://www.w3.org/2000/svg" viewBox="0 0 47.78 70.43"><defs><style>.cls-1{fill:#5006f2;}</style></defs><g id="Capa_2" data-name="Capa 2"><g id="Capa_2-2" data-name="Capa 2"><path class="cls-1" d="M30.23,62.8a.19.19,0,0,1-.15.2l-4.27,1.84-.52,1.62-1.11,3.48-.05.17a.35.35,0,0,1,0,.13v0a.18.18,0,0,1-.18.17c-.08,0-.15-.05-.17-.17l-1.14-3.8L22.17,65a.2.2,0,0,0-.08-.14S17.7,63,17.63,63h0a.22.22,0,0,1-.08-.14.21.21,0,0,1,.15-.24L22,60.87l.07,0,1.47-4.57.23-.73a.19.19,0,0,1,0-.07.15.15,0,0,1,.06-.09.15.15,0,0,1,.11,0,.18.18,0,0,1,.17.16l1.51,5.16a.21.21,0,0,0,.14.16l2,.81,2.25.94.1,0a.18.18,0,0,1,.13.14.17.17,0,0,1,0,.07"/><path class="cls-1" d="M9.4,65.24a2.5,2.5,0,0,1-.54-.07C1.54,63.45,0,59.92,0,57.26V8C0,3.58,4.22,0,9.4,0h29c5.18,0,9.4,3.58,9.4,8V57.26c0,2.78-1.55,6.41-8.93,7.93a2.36,2.36,0,0,1-.94-4.62c2.35-.48,5.16-1.45,5.16-3.31V8c0-1.76-2.15-3.26-4.69-3.26H9.4C6.86,4.71,4.71,6.21,4.71,8V57.26c0,2,4,3,5.23,3.32a2.36,2.36,0,0,1-.54,4.66Z"/><path class="cls-1" d="M25.62,9a1.87,1.87,0,1,1-1.87-1.86A1.87,1.87,0,0,1,25.62,9"/></g></g></svg>