<svg xmlns="http://www.w3.org/2000/svg" viewBox="0 0 61.09 61.13"><defs><style>.cls-1{fill:#ffda00;}</style></defs><g id="Capa_2" data-name="Capa 2"><g id="Capa_2-2" data-name="Capa 2"><path class="cls-1" d="M42.19,61.12c2,0,3.83,0,5.7,0a23.45,23.45,0,0,0,3.75-.19,11.39,11.39,0,0,0,9.44-11.47q0-18.85,0-37.69a14.65,14.65,0,0,0-.34-3.1A11.58,11.58,0,0,0,49.36,0C36.8.09,24.23,0,11.67,0A12.78,12.78,0,0,0,8.91.3,11.33,11.33,0,0,0,0,11.58q0,19,0,37.91a11.74,11.74,0,0,0,.11,1.87,11.43,11.43,0,0,0,11.49,9.76q10.08,0,20.17,0h.77V37.42H24.71V28.19H32.6v-.88c0-2.69,0-5.38.16-8.06A10.36,10.36,0,0,1,42.4,9.43c2.78-.22,5.6.05,8.39.08.59,0,.8.19.79.81,0,2.29,0,4.59,0,6.88,0,.2,0,.4-.06.66H50.07c-1.67.05-3.34,0-5,.18a2.87,2.87,0,0,0-2.74,2.6,5.86,5.86,0,0,0-.15,1.17c0,2,0,4,0,6a2.26,2.26,0,0,0,.1.42h8.93a4.64,4.64,0,0,1,0,.53c-.35,2.69-.72,5.37-1,8.06-.06.51-.22.66-.72.66-1.85,0-3.71,0-5.56,0H42.19Z"/></g></g></svg>