<svg xmlns="http://www.w3.org/2000/svg" viewBox="0 0 61 61.05"><defs><style>.cls-1{fill:#fff;}.cls-2{fill:#dadada;}</style></defs><g id="Capa_2" data-name="Capa 2"><g id="Capa_2-2" data-name="Capa 2"><path class="cls-1" d="M44.13,58H15.82A9.8,9.8,0,0,1,6,48.21V13.88a9.8,9.8,0,0,1,9.8-9.8H44.13a9.8,9.8,0,0,1,9.8,9.8V48.21a9.8,9.8,0,0,1-9.8,9.8"/><path class="cls-2" d="M14.4,61H.28c-.23,0-.28,0-.28-.28q0-7,0-14c.1.05.06.13.06.2a11.65,11.65,0,0,0,.14,1.46,12.34,12.34,0,0,0,.62,3.3,8.86,8.86,0,0,0,.85,2.13.18.18,0,0,0,.05.08l0,.06a11.51,11.51,0,0,0,2.73,3.5,11.2,11.2,0,0,0,3.1,2.09,12.52,12.52,0,0,0,3.64,1.13,22.06,22.06,0,0,0,2.92.3c.1,0,.19,0,.26.06"/><path class="cls-2" d="M45.85,61H44.67c.12-.1.28,0,.42-.08s.51-.06.76.08"/><path class="cls-2" d="M42.53,3.39v0h0a0,0,0,0,1,0,0h0"/><polygon class="cls-2" points="42.47 3.64 42.46 3.63 42.47 3.65 42.47 3.64"/><path class="cls-2" d="M13.16,50.71c-.16.11-.19,0-.21-.14h0l.2.14"/><path class="cls-2" d="M26.22,53.2s-.07,0-.12,0Z"/><path class="cls-2" d="M12.25,50.55H12.2l0,0,0,0"/><path class="cls-2" d="M25.33,53.19h0Z"/><polyline class="cls-2" points="26.41 53.24 26.41 53.25 26.41 53.24"/><path class="cls-2" d="M8,40s0,0,0,0V40a.2.2,0,0,0,0,0"/><path class="cls-2" d="M7.85,37.51a0,0,0,0,1,0,.05l0,0Z"/><path class="cls-2" d="M7.79,33.9c0-.38,0-.76,0-1.14a5.43,5.43,0,0,1,0,1.14"/><path class="cls-2" d="M53.21,26.83v7.46a.54.54,0,0,1-.07.39V30.75c0-1.45,0-2.88,0-4.33a.66.66,0,0,1,.06.41"/><path class="cls-2" d="M40.81,48.87a.53.53,0,0,1-.33.05c.09-.18.21-.15.33-.05"/><path class="cls-2" d="M53.14,35.52a2.73,2.73,0,0,1,0-.7.78.78,0,0,1,0,.7"/><path class="cls-2" d="M36.52,7.87a.9.9,0,0,1-.56,0,2.09,2.09,0,0,1,.56,0"/><path class="cls-2" d="M35.84,7.85a.09.09,0,0,1-.15,0Z"/><path class="cls-2" d="M53.1,37.62v0a.09.09,0,0,1,0-.07.11.11,0,0,1,0,0"/><path class="cls-2" d="M49.06,31V31C49,31,49,31,49.06,31"/><path class="cls-2" d="M49.77,2.75s0,0,0,0-.15,0-.17-.11.17,0,.21.07"/><path class="cls-2" d="M61,42.26V35.92c0-.13,0-.27,0-.4q0-6.12,0-12.23V14.66s0-.09,0-.14a27.18,27.18,0,0,0-.26-2.85,13.41,13.41,0,0,0-1.17-4.12,12.63,12.63,0,0,0-4.13-4.92,8.68,8.68,0,0,0-2.27-1.26,10.73,10.73,0,0,0-2.72-.9A29.59,29.59,0,0,0,44.73,0h-28c-1.46,0-2.91,0-4.36.19A13.2,13.2,0,0,0,3.62,4.41a12.31,12.31,0,0,0-3,5.5,12,12,0,0,0-.45,2.52c-.07.63-.1,1.25-.14,1.88,0,0,0,.11-.06.14V44.67H.07A6.2,6.2,0,0,1,0,46v.69c.1.05.06.13.06.21a11.49,11.49,0,0,0,.14,1.45,12.34,12.34,0,0,0,.62,3.3,8.7,8.7,0,0,0,.85,2.13.25.25,0,0,0,.05.08l0,.06a11.51,11.51,0,0,0,2.73,3.5,11.2,11.2,0,0,0,3.1,2.09,12.52,12.52,0,0,0,3.64,1.13,20.5,20.5,0,0,0,2.92.3c.1,0,.19,0,.25.06H44.67c.12-.1.28,0,.42-.08s.51-.06.76.08h.82A9.11,9.11,0,0,1,48,60.89a14.6,14.6,0,0,0,3.52-.61,11.72,11.72,0,0,0,3.17-1.42,2.82,2.82,0,0,0,.29-.18,12.66,12.66,0,0,0,5.1-6.59A17.63,17.63,0,0,0,61,46.65c0-1.47,0-2.92,0-4.39M.34,47.06l0,0a.42.42,0,0,0,0,.12s-.1,0-.09-.08m1.18-.82,0,0c.05,0,0,0,0,0m0,6c-.05,0-.12,0-.1-.11s.1,0,.16,0,0,.14-.06.13m.34-.2a.19.19,0,0,1,.06.07A.19.19,0,0,1,1.86,52Zm.09.36s0,0,0,0,0,0,0,0l0,0s0,0,0,.05m.08,1H2v0h0s0,0,0,0m.53-.6,0,0h0v0Zm2.18-8.06s-.08-.1,0-.17,0,.11,0,.17Zm.81,6h0v0h0Zm44.21-48s0,0,0,0-.15,0-.17-.11.17,0,.21.07m-7.24.64v0h0a0,0,0,0,1,0,0h0M12.23,50.56h0l0,0,0,0h0m40.91-15v.27c0,.6,0,1.18,0,1.78a.11.11,0,0,1,0,0v0c-.05,1-.09,1.9-.15,2.85a13.22,13.22,0,0,1-3.58,8.86,13.7,13.7,0,0,1-2,1.62,13.44,13.44,0,0,1-3.71,1.55,22.46,22.46,0,0,1-4.16.54c-.08,0-.19-.05-.25.06-.4,0-.82,0-1.23,0h-.28l-.61,0-4.61,0H29.2a3.94,3.94,0,0,0-1,0H26.78a.4.4,0,0,0-.38,0s-.07-.07-.12-.07l-.06,0s-.08,0-.12,0l-.78,0c-.74-.07-1.5,0-2.25-.06A24.29,24.29,0,0,1,20.23,53a22.58,22.58,0,0,1-3.13-.56,16.17,16.17,0,0,1-3.23-1.3,6.62,6.62,0,0,0-.71-.46c-.16.11-.19,0-.21-.14h0l-.29-.25A11.46,11.46,0,0,1,9,45.43a17.39,17.39,0,0,1-.88-3.31C8.09,41.5,8,40.87,8,40.26l0-.22V40c0-.79-.06-1.6-.09-2.4l0,0,0,0c0-.14,0-.28,0-.43,0-1.06,0-2.11,0-3.18,0-.38,0-.76,0-1.14,0-.11,0-.23,0-.34,0-1,0-2.07,0-3.1s0-2,0-3c.08-.77,0-1.55,0-2.32,0-1.52.1-3,.22-4.56a21.86,21.86,0,0,1,.7-3.21A15,15,0,0,1,10,13.65a11.73,11.73,0,0,1,7.28-5.12A21.89,21.89,0,0,1,22.08,8l3.15-.11a2.83,2.83,0,0,0,.41,0h8.75a8.07,8.07,0,0,0,1.3,0h.15s.08,0,.12,0a1.73,1.73,0,0,1,.56,0c1.52.08,3,.11,4.55.23a14.82,14.82,0,0,1,5.46,1.5A12.39,12.39,0,0,1,50,12.35,12.83,12.83,0,0,1,52.05,16a18.56,18.56,0,0,1,1,5.66c0,1.21.09,2.43.14,3.64a5.73,5.73,0,0,0,0,1.17.68.68,0,0,1,.06.4v7.46a.59.59,0,0,1-.07.39v.14a.78.78,0,0,1,0,.7m.13-11.36a.07.07,0,0,1,0-.1s0,0,.07,0l0,.09s0,.06-.07.06m6.67-3.33s-.08,0-.06,0a0,0,0,0,1,0,0s0,0,0,0l0,0m.56-1.33s0,0,0-.05h0s0,0,0,0l0,0"/><path class="cls-2" d="M53.35,24.1s-.05.06-.08.06a.07.07,0,0,1,0-.1s0,0,.07,0a.28.28,0,0,0,.05.09"/><path class="cls-2" d="M60,20.78l0,0s-.08,0-.06,0a0,0,0,0,1,0,0s0,0,0,0"/><path class="cls-2" d="M60.53,19.48l0,0a.43.43,0,0,0,0-.05h0s0,0,0,0"/><rect class="cls-2" x="5.54" y="50.73" width="0.03" height="0.02"/><polygon class="cls-2" points="5.38 44.39 5.39 44.4 5.38 44.39 5.38 44.39"/><polygon class="cls-2" points="5.65 44.25 5.67 44.26 5.65 44.25 5.65 44.25"/><path class="cls-2" d="M30,16.65l-.09,0,0,0,.05.07"/><path class="cls-2" d="M18.23,26.13l-.05,0s0,0,0,0l.05-.05a.1.1,0,0,1,0,.05"/><path class="cls-2" d="M49.06,31.17V31C49,31,49,31,49.06,31v-1c0-2.34,0-4.68-.06-7a21.39,21.39,0,0,0-.47-4.58A7.62,7.62,0,0,0,45.86,14a.93.93,0,0,0-.15-.13,8.15,8.15,0,0,0-3.33-1.48A21,21,0,0,0,38,12c-4.76-.11-9.53-.1-14.3,0a27.28,27.28,0,0,0-4.86.35,7.71,7.71,0,0,0-6.45,5.89,23.33,23.33,0,0,0-.51,5.47c0,.33,0,.66,0,1s0,.61,0,.9v1.67a12.63,12.63,0,0,0,0,1.74v.18a.82.82,0,0,0,0,.44c0,.79,0,1.58,0,2.36,0,1.25,0,2.49,0,3.74a14.59,14.59,0,0,0,0,1.62c0,1.14,0,2.28.18,3.42A8.3,8.3,0,0,0,12.25,42a7.78,7.78,0,0,0,6.38,6.69,24.6,24.6,0,0,0,4.53.39c3,.09,6.09.09,9.14.07,1.34,0,2.7,0,4.05,0h.2c1.31,0,2.62,0,3.93-.16.09-.18.21-.15.33-.05H41a9.36,9.36,0,0,0,2.44-.49,6.93,6.93,0,0,0,3-1.85,7.55,7.55,0,0,0,2.17-4.08A22.47,22.47,0,0,0,49,38.1c.07-2.31.09-4.63.06-6.93m-30.88-5s0,0,0,0l.05-.05a.1.1,0,0,1,0,.05s0,0-.05,0M30,16.58s0,0,.05.07l-.09,0,0,0M22.1,40v-.08s0,0,0,.05,0,0,0,0M41,35.48a16.68,16.68,0,0,1-1.68,2.65c-.52.49-1,1-1.59,1.49a17.34,17.34,0,0,1-2.26,1.45c-.62.18-1.18.47-1.81.65a12.12,12.12,0,0,1-5.12.27,1.81,1.81,0,0,0-.23,0l0,0h0A11.69,11.69,0,0,1,21,37.23,10.89,10.89,0,0,1,19.76,35l-.18-.36a12.44,12.44,0,0,1-.72-4.22c0-.18,0-.35,0-.52s0-.23,0-.35a14.66,14.66,0,0,1,.36-2.12,14.91,14.91,0,0,1,1.06-2.63,12.31,12.31,0,0,1,2.1-2.7,11.65,11.65,0,0,1,15.14-.85.62.62,0,0,0,.17.11,12.46,12.46,0,0,1,2.77,3.2,11.07,11.07,0,0,1,1.31,3.32.44.44,0,0,0,.06.16c.08.5.16,1,.2,1.52A11.4,11.4,0,0,1,41,35.48m1.56-14.31a2.74,2.74,0,0,1-2.71-2.73,2.7,2.7,0,0,1,2.71-2.7,2.84,2.84,0,0,1,2.74,2.39,2.78,2.78,0,0,1-2.74,3"/><path class="cls-2" d="M22.11,40a.1.1,0,0,0,0,0v-.07s0,0,0,0"/><polygon class="cls-2" points="22.1 39.91 22.09 39.9 22.1 39.91 22.1 39.91"/><path class="cls-2" d="M35.9,35.8l-.09.06A7.14,7.14,0,0,1,31,38.07a7.56,7.56,0,0,1-8.08-7V30.9a7.16,7.16,0,0,1,1.17-4.41,7.1,7.1,0,0,1,4.17-3.2A7.41,7.41,0,0,1,35.62,25c.07.07.19.12.18.26a2.81,2.81,0,0,1,.91,1,7.59,7.59,0,0,1-.81,9.56"/></g></g></svg>