<svg xmlns="http://www.w3.org/2000/svg" viewBox="0 0 64.98 63.06"><defs><style>.cls-1{fill:#5006f2;}.cls-2{fill:#ffda00;}</style></defs><g id="Capa_2" data-name="Capa 2"><g id="Capa_2-2" data-name="Capa 2"><path class="cls-1" d="M35.77,29.8a.13.13,0,0,1-.09.12l-2.62,1.13-.32,1-.68,2.13,0,.11a.25.25,0,0,1,0,.07v0a.11.11,0,0,1-.11.1s-.09,0-.1-.1L31.1,32l-.27-.88a.19.19,0,0,0,0-.09s-2.69-1.13-2.73-1.16h0a.14.14,0,0,1-.05-.08.13.13,0,0,1,.09-.15l2.64-1.07,0,0,.9-2.8.14-.45a.43.43,0,0,0,0-.05.1.1,0,0,1,0-.05.09.09,0,0,1,.07,0,.12.12,0,0,1,.1.11L33,28.48a.14.14,0,0,0,.08.1l1.2.5,1.38.57a.12.12,0,0,1,.06,0,.09.09,0,0,1,.08.08.09.09,0,0,1,0,.05"/><path class="cls-1" d="M40.89,31.83a2.36,2.36,0,1,1,0-4.71c2.29,0,2.29,0,4.42,0h.23c3.39,0,6.78,0,10.17,0A3.52,3.52,0,0,1,53.21,24c-1-5.2-2-10.3-3-15.5-.57-2.82-1.65-3.77-4.3-3.77q-13.47,0-26.94,0c-2.59,0-3.76,1-4.31,3.8-.34,1.75-.69,3.5-1,5.26-.68,3.41-1.36,6.81-2,10.23A3.51,3.51,0,0,1,9.2,27.07h3.11c3.42,0,6.59,0,10.81,0a2.36,2.36,0,1,1,0,4.71c-4.23,0-7.41,0-10.84,0l-6.8,0H5.24a4.47,4.47,0,0,1-3.38-1c-.21-.21-2.32-2.28-1.77-4.53a5.43,5.43,0,0,1,3.57-3.56,10.3,10.3,0,0,1,3.5-.22c.6-3.21,1.24-6.4,1.87-9.6q.53-2.62,1-5.25C11.31,1.34,15.61,0,19,0Q32.47,0,46,0c4.9,0,7.91,2.54,8.91,7.56s2,9.91,2.87,14.9c.86,0,1.69,0,2.43,0A4.62,4.62,0,0,1,65,27.17c0,2.68-2,4.58-4.91,4.59-4.84,0-9.69.06-14.52.06H40.89ZM5.11,27.36h0Z"/><path class="cls-2" d="M16.16,63.06a16.58,16.58,0,0,1-2.1-.14A15.25,15.25,0,0,1,1,47.77,15.09,15.09,0,0,1,14,32.64,15.13,15.13,0,0,1,30.81,43.19l0,.05h.5a16.71,16.71,0,0,0,2.83,0c.14-.26.36-.86.56-1.4l.19-.51c2.5-6.63,10.22-10.31,17.58-8.36a15.31,15.31,0,1,1-18,20.65,38.83,38.83,0,0,0-4.05-.08A15.34,15.34,0,0,1,16.16,63.06Zm.18-25.9a11.3,11.3,0,0,0-1.63.13,10.6,10.6,0,0,0,0,21,10.67,10.67,0,0,0,11.71-7.49c.59-2,2.74-2,5.23-2,4.88,0,6.36.44,6.88,2.12A10.59,10.59,0,1,0,51.29,37.49c-5-1.33-10.31,1.07-12,5.47l-.19.49c-1.48,4-2.75,4.72-8,4.5h-.25a4.21,4.21,0,0,1-4.59-3.41A10.41,10.41,0,0,0,16.34,37.16ZM28.65,51.44h0Z"/></g></g></svg>