<svg xmlns="http://www.w3.org/2000/svg" viewBox="0 0 50.83 53.89"><defs><style>.cls-1{fill:#ffda00;}</style></defs><g id="Capa_2" data-name="Capa 2"><g id="Capa_2-2" data-name="Capa 2"><path class="cls-1" d="M27.63,53.75c-.89,0-1.83,0-2.81-.14a1.93,1.93,0,0,1,.36-3.84c10.34,1,14.66-4.38,16-6.73.72-1.22,1.91-5.55,2.5-8A1.91,1.91,0,0,1,46,33.62,1.93,1.93,0,0,1,47.45,36c-.27,1.15-1.69,7-2.91,9-1.61,2.75-6.34,8.76-16.91,8.76"/><path class="cls-1" d="M22.3,49a.12.12,0,0,1-.09.12l-2.76,1.19-.34,1-.71,2.25,0,.11a.41.41,0,0,1,0,.08v0a.11.11,0,0,1-.11.11c-.06,0-.1,0-.11-.11l-.74-2.46-.29-.93A.11.11,0,0,0,17,50.3l-2.88-1.22h0a.26.26,0,0,1-.05-.09.15.15,0,0,1,.1-.16L17,47.71s0,0,.05,0l.95-3,.15-.47v0a.09.09,0,0,1,0-.06.1.1,0,0,1,.07,0,.11.11,0,0,1,.11.1l1,3.33a.15.15,0,0,0,.09.11l1.27.53,1.45.6a.21.21,0,0,1,.15.11V49"/><path class="cls-1" d="M5.38,20.46l-3.79-.72a24.29,24.29,0,0,1,47.72,0l-3.79.72a20.43,20.43,0,0,0-40.14,0"/><path class="cls-1" d="M6.26,36H4.2A4.21,4.21,0,0,1,0,31.78V22.37a4.21,4.21,0,0,1,4.2-4.2H6.26a4.21,4.21,0,0,1,4.21,4.2v9.41A4.21,4.21,0,0,1,6.26,36M4.2,22a.34.34,0,0,0-.34.34v9.41a.34.34,0,0,0,.34.34H6.26a.34.34,0,0,0,.35-.34V22.37A.34.34,0,0,0,6.26,22Z"/><path class="cls-1" d="M46.62,36H44.56a4.21,4.21,0,0,1-4.2-4.2V22.37a4.21,4.21,0,0,1,4.2-4.2h2.06a4.21,4.21,0,0,1,4.21,4.2v9.41A4.21,4.21,0,0,1,46.62,36M44.56,22a.34.34,0,0,0-.34.34v9.41a.34.34,0,0,0,.34.34h2.06a.34.34,0,0,0,.35-.34V22.37a.34.34,0,0,0-.35-.34Z"/></g></g></svg>