<svg xmlns="http://www.w3.org/2000/svg" viewBox="0 0 47.79 65.23"><defs><style>.cls-1{fill:#fff;}</style></defs><g id="Capa_2" data-name="Capa 2"><g id="Capa_2-2" data-name="Capa 2"><path class="cls-1" d="M45.44,52.88a.12.12,0,0,1-.09.13l-2.66,1.14-.32,1-.69,2.16,0,.11a.16.16,0,0,1,0,.08h0c0,.08-.06.11-.1.11a.11.11,0,0,1-.11-.11l-.71-2.36-.27-.89a.19.19,0,0,0,0-.09L37.6,53h0a.13.13,0,0,1,0-.09.12.12,0,0,1,.09-.14l2.67-1.09,0,0,.92-2.84.14-.46,0,0a.06.06,0,0,1,0-.06.1.1,0,0,1,.07,0c.05,0,.09,0,.1.1l1,3.2a.12.12,0,0,0,.08.11l1.22.5,1.4.58.06,0a.13.13,0,0,1,.08.08.06.06,0,0,1,0,0"/><path class="cls-1" d="M24.21,40.29a2.36,2.36,0,0,1-2.36-2.36V28.8a2.36,2.36,0,0,1,4.72,0v9.13A2.36,2.36,0,0,1,24.21,40.29Z"/><rect class="cls-1" x="21.85" y="2.36" width="4.71" height="10.6"/><path class="cls-1" d="M23.9,65.23A23.92,23.92,0,0,1,0,41.34V23.9a23.9,23.9,0,1,1,47.79,0V41.34a23.82,23.82,0,0,1-.76,6,2.35,2.35,0,1,1-4.56-1.17,19.3,19.3,0,0,0,.61-4.85V23.9a19.19,19.19,0,1,0-38.37,0V41.34A19.19,19.19,0,0,0,35.93,56.28a2.35,2.35,0,0,1,3,3.67A23.63,23.63,0,0,1,23.9,65.23Z"/><path class="cls-1" d="M24.63,31.16h-.84a6.39,6.39,0,0,1-6.38-6.39V17a6.39,6.39,0,0,1,6.38-6.39h.84A6.39,6.39,0,0,1,31,17v7.75A6.39,6.39,0,0,1,24.63,31.16Zm-.84-15.81A1.67,1.67,0,0,0,22.12,17v7.75a1.67,1.67,0,0,0,1.67,1.67h.84a1.67,1.67,0,0,0,1.67-1.67V17a1.67,1.67,0,0,0-1.67-1.67Z"/></g></g></svg>