<svg xmlns="http://www.w3.org/2000/svg" viewBox="0 0 45.21 51.95"><defs><style>.cls-1{fill:#ffda00;}.cls-2{fill:#5006f2;}</style></defs><g id="Capa_2" data-name="Capa 2"><g id="Capa_2-2" data-name="Capa 2"><path class="cls-1" d="M23.6,24.9A12.45,12.45,0,1,1,36.05,12.45,12.46,12.46,0,0,1,23.6,24.9m0-21a8.59,8.59,0,1,0,8.59,8.59A8.6,8.6,0,0,0,23.6,3.86"/><path class="cls-2" d="M43.28,50.38a1.92,1.92,0,0,1-1.93-1.93A17.76,17.76,0,0,0,10.76,36.18a18,18,0,0,0-2.9,4,1.93,1.93,0,0,1-3.41-1.79A21.86,21.86,0,0,1,8,33.51,21.61,21.61,0,0,1,45.21,48.45a1.93,1.93,0,0,1-1.93,1.93"/><path class="cls-2" d="M8.67,46.73a.12.12,0,0,1-.1.13L5.65,48.12l-.36,1.12-.75,2.38,0,.11a.24.24,0,0,1,0,.08v0a.12.12,0,0,1-.12.11.11.11,0,0,1-.12-.11l-.78-2.6-.3-1a.15.15,0,0,0-.06-.09s-3-1.27-3-1.3h0A.15.15,0,0,1,0,46.77a.16.16,0,0,1,.1-.17L3,45.41l0,0,1-3.13.15-.5,0,0a.09.09,0,0,1,0-.06.11.11,0,0,1,.07,0q.09,0,.12.12l1,3.52a.14.14,0,0,0,.1.11L7,45.93l1.54.63.06,0a.12.12,0,0,1,.09.1.06.06,0,0,1,0,0"/></g></g></svg>