<svg xmlns="http://www.w3.org/2000/svg" viewBox="0 0 47.42 59.36"><defs><style>.cls-1{fill:#dadada;}</style></defs><g id="Capa_2" data-name="Capa 2"><g id="Capa_2-2" data-name="Capa 2"><path class="cls-1" d="M22.23,54.15a.14.14,0,0,1-.1.13l-2.92,1.26-.36,1.11L18.09,59l0,.11a.16.16,0,0,1,0,.09v0a.11.11,0,0,1-.12.11.11.11,0,0,1-.11-.11L17,56.65l-.31-1a.11.11,0,0,0-.05-.1s-3-1.26-3.05-1.3h0a.19.19,0,0,1,0-.09.14.14,0,0,1,.1-.16l2.94-1.19,0,0,1-3.13.16-.5a.17.17,0,0,1,0-.05s0,0,0-.06a.08.08,0,0,1,.07,0c.06,0,.1,0,.11.11l1,3.52a.13.13,0,0,0,.1.11l1.34.56,1.54.64.06,0a.12.12,0,0,1,.09.09.07.07,0,0,1,0,0"/><path class="cls-1" d="M6.49,55.87A6.73,6.73,0,0,1,0,49v-42A6.72,6.72,0,0,1,6.49,0H29.3a6.72,6.72,0,0,1,6.49,6.92V17.08a1.93,1.93,0,0,1-3.86,0V6.92A2.87,2.87,0,0,0,29.3,3.86H6.49A2.87,2.87,0,0,0,3.86,6.92V49A2.88,2.88,0,0,0,6.49,52a1.93,1.93,0,0,1,0,3.86"/><path class="cls-1" d="M29.3,55.79a1.86,1.86,0,1,1,0-3.71A2.94,2.94,0,0,0,32,49V35.61a1.86,1.86,0,1,1,3.71,0V49a6.65,6.65,0,0,1-6.41,6.84"/><path class="cls-1" d="M23,35.68a1.94,1.94,0,0,1-1.29-.49c-2.43-1.08-2.95-2.71-2.95-3.91V19.34a4.08,4.08,0,0,1,4-4.18H43.42a4.1,4.1,0,0,1,4,4.18V31.28a4.1,4.1,0,0,1-4,4.18H30.74a1.93,1.93,0,0,1,0-3.86H43.42a.35.35,0,0,0,.14-.32V19.34a.37.37,0,0,0-.15-.33H22.73a.44.44,0,0,0-.13.33V31.28a2.67,2.67,0,0,0,.85.46,2.44,2.44,0,0,1,1,.71,1.94,1.94,0,0,1-.12,2.73,2,2,0,0,1-1.3.5"/><path class="cls-1" d="M25.88,43.9a2.34,2.34,0,0,1-.33,0,3.29,3.29,0,0,1-2.72-2.73L21.17,34.3a1.93,1.93,0,0,1,3.75-.91l1.26,5.19L29,32.68l3.47,1.67S30,39.59,29,41.63a3.44,3.44,0,0,1-3.11,2.27"/><path class="cls-1" d="M28.58,25.31a1.7,1.7,0,1,1-1.69-1.85,1.78,1.78,0,0,1,1.69,1.85"/><path class="cls-1" d="M33.79,25.31a1.7,1.7,0,1,1-1.7-1.85,1.78,1.78,0,0,1,1.7,1.85"/><path class="cls-1" d="M38.9,25.31a1.7,1.7,0,1,1-1.7-1.85,1.78,1.78,0,0,1,1.7,1.85"/><path class="cls-1" d="M13.65,7.23a.9.9,0,1,1-.9-.9.9.9,0,0,1,.9.9"/><path class="cls-1" d="M23.5,8.13H15.89a.45.45,0,0,1-.45-.44V7.13a.44.44,0,0,1,.45-.44H23.5a.44.44,0,0,1,.44.44v.56a.44.44,0,0,1-.44.44"/></g></g></svg>