<svg xmlns="http://www.w3.org/2000/svg" viewBox="0 0 64.98 63.06"><defs><style>.cls-1{fill:#ffda00;}</style></defs><g id="Capa_2" data-name="Capa 2"><g id="Capa_2-2" data-name="Capa 2"><path class="cls-1" d="M35.77,29.79a.13.13,0,0,1-.09.13L33.06,31l-.32,1-.68,2.13,0,.1a.24.24,0,0,1,0,.08v0a.11.11,0,0,1-.11.1s-.09,0-.1-.1L31.1,32l-.27-.88a.19.19,0,0,0,0-.09s-2.69-1.13-2.73-1.16h0a.13.13,0,0,1-.05-.09.12.12,0,0,1,.09-.14l2.64-1.07,0,0,.9-2.81.14-.44a.43.43,0,0,0,0-.05.1.1,0,0,1,0-.05.09.09,0,0,1,.07,0,.12.12,0,0,1,.1.11L33,28.47a.15.15,0,0,0,.08.11l1.2.49,1.38.57.06,0a.09.09,0,0,1,.08.08.08.08,0,0,1,0,0"/><path class="cls-1" d="M40.89,31.83a2.36,2.36,0,0,1,0-4.72h4.65c3.39,0,6.78,0,10.17,0A3.52,3.52,0,0,1,53.21,24c-1-5.32-2-10.57-3-15.5-.57-2.82-1.65-3.77-4.3-3.77q-13.47,0-26.94,0c-2.59,0-3.76,1-4.3,3.8-.34,1.73-.69,3.45-1,5.18-.68,3.43-1.36,6.87-2,10.31A3.51,3.51,0,0,1,9.2,27.07h3c3.48,0,6.68,0,11,0a2.36,2.36,0,1,1,0,4.72c-4.3,0-7.5,0-11,0l-6.64,0H5.24a4.47,4.47,0,0,1-3.38-1c-.21-.21-2.32-2.28-1.77-4.53a5.45,5.45,0,0,1,3.56-3.56,10.39,10.39,0,0,1,3.51-.22c.61-3.24,1.25-6.46,1.89-9.68l1-5.17C11.31,1.34,15.61,0,19,0Q32.47,0,46,0c4.91,0,7.91,2.54,8.91,7.56.94,4.74,1.93,9.78,2.87,14.9.84,0,1.65,0,2.43,0,2.91.1,4.84,2,4.82,4.67s-2,4.58-4.91,4.59c-4.84,0-9.69.06-14.52.06H40.89ZM5.11,27.35l0,0Z"/><path class="cls-1" d="M16.16,63.06a16.58,16.58,0,0,1-2.1-.14A15.3,15.3,0,1,1,30.81,43.19v.05h.51a16.71,16.71,0,0,0,2.83,0c.14-.26.36-.86.56-1.4l.19-.51c2.5-6.63,10.22-10.3,17.58-8.36a15.31,15.31,0,1,1-18,20.65,38.83,38.83,0,0,0-4.05-.08A15.34,15.34,0,0,1,16.16,63.06Zm.17-25.9a9.92,9.92,0,0,0-1.62.13,10.6,10.6,0,0,0,0,21,10.68,10.68,0,0,0,11.71-7.49h0c.6-2,2.75-2,5.24-2,4.85,0,6.35.44,6.87,2.12A10.59,10.59,0,1,0,51.28,37.49c-5.05-1.33-10.3,1.07-12,5.47l-.19.49c-1.48,4-2.76,4.72-8,4.5h-.25c-2.5,0-3.87-1-4.59-3.41A10.41,10.41,0,0,0,16.33,37.16Zm14.57,15Z"/></g></g></svg>