<svg xmlns="http://www.w3.org/2000/svg" viewBox="0 0 61 61.05"><defs><style>.cls-1{fill:#fff;}.cls-2{fill:#5006f2;}</style></defs><g id="Capa_2" data-name="Capa 2"><g id="Capa_2-2" data-name="Capa 2"><path class="cls-1" d="M44.13,58H15.82A9.8,9.8,0,0,1,6,48.21V13.88a9.8,9.8,0,0,1,9.8-9.8H44.13a9.8,9.8,0,0,1,9.8,9.8V48.21a9.8,9.8,0,0,1-9.8,9.8"/><path class="cls-2" d="M14.4,61H.28c-.23,0-.28,0-.28-.28q0-7,0-14c.1.05.06.13.06.2a11.47,11.47,0,0,0,.14,1.46,12.34,12.34,0,0,0,.62,3.3,8.86,8.86,0,0,0,.85,2.13.12.12,0,0,0,.05.07.25.25,0,0,0,0,.07,11.51,11.51,0,0,0,2.73,3.5,11.69,11.69,0,0,0,3.1,2.1,12.82,12.82,0,0,0,3.64,1.12,22.06,22.06,0,0,0,2.92.3c.1,0,.19,0,.26.06"/><path class="cls-2" d="M0,46V44.67H.07A6.2,6.2,0,0,1,0,46"/><path class="cls-2" d="M42.53,3.39v0h0a0,0,0,0,1,0,0h0"/><polygon class="cls-2" points="42.47 3.64 42.46 3.63 42.47 3.65 42.47 3.64"/><path class="cls-2" d="M13.16,50.71c-.16.11-.19,0-.21-.13h0a.86.86,0,0,1,.2.13"/><path class="cls-2" d="M26.22,53.2s-.07,0-.12,0Z"/><path class="cls-2" d="M12.25,50.55H12.2l0,0,0,0"/><path class="cls-2" d="M25.33,53.19h0Z"/><path class="cls-2" d="M26.41,53.24h0Z"/><path class="cls-2" d="M8,40a0,0,0,0,1,0,0V40a.2.2,0,0,0,0,0"/><path class="cls-2" d="M7.85,37.51a0,0,0,0,1,0,.05l0,0Z"/><path class="cls-2" d="M.43,47.14s-.1,0-.09-.08l0,0,0,.12"/><path class="cls-2" d="M4.76,44.73h0s-.08-.1,0-.17,0,.11,0,.17"/><path class="cls-2" d="M1.52,46.24l0,0c.05,0,0,0,0,0"/><path class="cls-2" d="M7.79,33.9c0-.38,0-.76,0-1.14a5.43,5.43,0,0,1,0,1.14"/><path class="cls-2" d="M53.21,26.83v7.46c0,.14,0,.27-.07.39V30.75c0-1.45,0-2.88,0-4.32a.61.61,0,0,1,.06.4"/><path class="cls-2" d="M40.81,48.87a.53.53,0,0,1-.33.05c.09-.18.21-.15.33-.05"/><path class="cls-2" d="M53.14,35.52a2.73,2.73,0,0,1,0-.7.78.78,0,0,1,0,.7"/><path class="cls-2" d="M36.52,7.88a1,1,0,0,1-.56,0,1.75,1.75,0,0,1,.56,0"/><path class="cls-2" d="M35.84,7.85a.09.09,0,0,1-.15,0Z"/><path class="cls-2" d="M53.1,37.62v0a.06.06,0,0,1,0-.06.06.06,0,0,1,0,0"/><path class="cls-2" d="M49.06,31V31C49,31,49,31,49.06,31"/><path class="cls-2" d="M49.77,2.75s0,0,0,0-.15,0-.17-.11.17,0,.21.07"/><path class="cls-2" d="M61,42.26V35.92c0-.13,0-.27,0-.4q0-6.12,0-12.23V14.66c0-.05,0-.09,0-.14a27.18,27.18,0,0,0-.26-2.85,13.2,13.2,0,0,0-1.17-4.11,12.59,12.59,0,0,0-4.13-4.93,8.68,8.68,0,0,0-2.27-1.26,10.73,10.73,0,0,0-2.72-.9A28.82,28.82,0,0,0,44.73,0h-28a42.28,42.28,0,0,0-4.36.2,13.14,13.14,0,0,0-8.76,4.2,12.23,12.23,0,0,0-3,5.5,11.89,11.89,0,0,0-.45,2.52c-.07.63-.1,1.25-.14,1.88a.16.16,0,0,1-.06.15V44.67H.07A6.2,6.2,0,0,1,0,46v.69c.1.05.06.13.06.21a11.49,11.49,0,0,0,.14,1.45,12.34,12.34,0,0,0,.62,3.3,8.7,8.7,0,0,0,.85,2.13.12.12,0,0,0,.05.07.25.25,0,0,0,0,.07,11.51,11.51,0,0,0,2.73,3.5,11.46,11.46,0,0,0,3.1,2.1,12.82,12.82,0,0,0,3.64,1.12,22.06,22.06,0,0,0,2.92.3c.1,0,.19,0,.25.06H44.67c.12-.1.28,0,.42-.08s.51-.06.76.08h.82A9.11,9.11,0,0,1,48,60.89a14.6,14.6,0,0,0,3.52-.61,11.42,11.42,0,0,0,3.17-1.42l.29-.17a12.72,12.72,0,0,0,5.1-6.6A17.63,17.63,0,0,0,61,46.65c0-1.47,0-2.92,0-4.39M.34,47.06l0,0a.42.42,0,0,0,0,.12s-.1,0-.09-.08m1.18-.82,0,0c.05,0,0,0,0,0m0,6c-.05,0-.12,0-.1-.11s.1,0,.16,0,0,.14-.06.13m.34-.2.06.07A.19.19,0,0,1,1.86,52Zm.09.36s0,0,0,0,0,0,0,0l0,0s0,0,0,.05m.08,1H2v0h0s0,0,0,0m.53-.6,0,0h0v0Zm2.18-8.06s-.08-.1,0-.17,0,.11,0,.17Zm.81,6h0v0h0Zm44.21-48s0,0,0,0-.15,0-.17-.11.17,0,.21.07m-7.24.64v0h0a0,0,0,0,1,0,0h0M12.23,50.56h0l0,0,0,0h0m40.91-15v.27c0,.6,0,1.18,0,1.79a.06.06,0,0,1,0,0v0c-.05,1-.09,1.9-.15,2.85a13.22,13.22,0,0,1-3.58,8.86,13.7,13.7,0,0,1-2,1.62,13.44,13.44,0,0,1-3.71,1.55,22.46,22.46,0,0,1-4.16.54c-.08,0-.19-.05-.25.06-.4,0-.82,0-1.23,0h-.28l-.61,0-4.61,0H29.2a3.94,3.94,0,0,0-1,0H26.78a.4.4,0,0,0-.38,0,.15.15,0,0,0-.12-.07l-.06,0s-.08,0-.12,0l-.78,0c-.74-.07-1.5,0-2.25-.06a22.27,22.27,0,0,1-2.84-.1,21.16,21.16,0,0,1-3.13-.55,16.75,16.75,0,0,1-3.23-1.29,5.45,5.45,0,0,0-.71-.47c-.16.11-.19,0-.21-.13v0l-.29-.26A11.37,11.37,0,0,1,9,45.43a17.39,17.39,0,0,1-.88-3.31C8.09,41.5,8,40.87,8,40.26l0-.22V40c0-.79-.06-1.6-.09-2.4l0,0,0,0c0-.14,0-.28,0-.42,0-1.07,0-2.12,0-3.19,0-.38,0-.76,0-1.14,0-.11,0-.23,0-.34,0-1,0-2.08,0-3.1s0-2,0-3c.08-.77,0-1.55,0-2.32,0-1.52.1-3,.22-4.56a21.86,21.86,0,0,1,.7-3.21A15,15,0,0,1,10,13.65a11.78,11.78,0,0,1,7.28-5.13A22.51,22.51,0,0,1,22.08,8l3.15-.11a2.83,2.83,0,0,0,.41,0h8.75a8.07,8.07,0,0,0,1.3,0h.15s.08,0,.12,0a1.73,1.73,0,0,1,.56,0c1.52.08,3,.1,4.55.23a14.83,14.83,0,0,1,5.46,1.51A12.18,12.18,0,0,1,50,12.35,12.83,12.83,0,0,1,52.05,16a18.56,18.56,0,0,1,1,5.66c0,1.22.09,2.43.14,3.64a5.73,5.73,0,0,0,0,1.17.61.61,0,0,1,.06.4v7.46c0,.14,0,.27-.07.39v.14a.78.78,0,0,1,0,.7m.13-11.36a.06.06,0,0,1,0-.1s0,0,.06,0l0,.09s0,.06-.07.06m6.67-3.33s-.08,0-.06,0a0,0,0,0,1,0,0s0,0,0,0l0,0m.56-1.33s0,0,0-.05h0s0,0,0,0l0,0"/><path class="cls-2" d="M53.35,24.1s-.05.06-.08.06a.06.06,0,0,1,0-.1s0,0,.06,0a.28.28,0,0,0,.05.09"/><path class="cls-2" d="M60,20.78l0,0s-.08,0-.06,0a0,0,0,0,1,0,0l0,0"/><path class="cls-2" d="M60.53,19.48l0,0s0,0,0-.05h0s0,0,0,0"/><rect class="cls-2" x="5.54" y="50.73" width="0.03" height="0.03"/><polygon class="cls-2" points="5.38 44.39 5.39 44.4 5.38 44.39 5.38 44.39"/><polygon class="cls-2" points="5.65 44.25 5.66 44.26 5.65 44.25 5.65 44.25"/><path class="cls-2" d="M1.53,52.22c-.05,0-.12,0-.1-.11s.1,0,.16,0,0,.14-.06.13"/><path class="cls-2" d="M2,52.33s0,0,0,.05,0,0,0,0a.05.05,0,0,1,0,0l0,0"/><path class="cls-2" d="M2.58,52.78h0l0,0h0v0"/><path class="cls-2" d="M2.06,53.37s0,0,0,0H2v0h0"/><path class="cls-2" d="M1.93,52.09A.19.19,0,0,1,1.86,52h0l.06.07"/><polygon class="cls-2" points="1.94 52.09 1.95 52.11 1.93 52.1 1.94 52.09"/><path class="cls-2" d="M30,16.65l-.09,0a.05.05,0,0,0,0,0s0,.05.05.08"/><path class="cls-2" d="M18.23,26.13l-.05,0s0,0,0,0l.05-.05a.1.1,0,0,1,0,.05"/><path class="cls-2" d="M49.06,31.17V31C49,31,49,31,49.06,31v-1c0-2.34,0-4.68-.06-7a21.39,21.39,0,0,0-.47-4.58A7.62,7.62,0,0,0,45.86,14s-.09-.09-.15-.13a8.15,8.15,0,0,0-3.33-1.48A21,21,0,0,0,38,12c-4.76-.11-9.53-.1-14.3,0a28.25,28.25,0,0,0-4.86.35,7.7,7.7,0,0,0-6.44,5.9,22.73,22.73,0,0,0-.52,5.46c0,.33,0,.66,0,1s0,.61,0,.9v1.67a12.63,12.63,0,0,0,0,1.74v.18a.82.82,0,0,0,0,.44c0,.78,0,1.58,0,2.37,0,1.24,0,2.48,0,3.73a14.59,14.59,0,0,0,0,1.62c0,1.14,0,2.28.18,3.42A8.14,8.14,0,0,0,12.25,42a7.78,7.78,0,0,0,6.38,6.69,24.6,24.6,0,0,0,4.53.39c3,.09,6.09.09,9.14.07,1.34,0,2.7,0,4.05,0h.2c1.31,0,2.62,0,3.93-.16.09-.18.21-.15.33-.05H41a9.36,9.36,0,0,0,2.44-.49,6.93,6.93,0,0,0,3-1.85,7.55,7.55,0,0,0,2.17-4.08A22.47,22.47,0,0,0,49,38.1c.07-2.31.09-4.63.06-6.93m-30.88-5s0,0,0,0l.05-.05a.1.1,0,0,1,0,.05s0,0-.05,0M30,16.58s0,0,.05.07l-.09,0,0,0M22.1,40v-.07s0,0,0,0,0,0,0,0M41,35.48a16.89,16.89,0,0,1-1.67,2.65c-.53.49-1,1-1.6,1.49a17.34,17.34,0,0,1-2.26,1.45c-.62.18-1.18.48-1.81.65a12.12,12.12,0,0,1-5.12.27,1.81,1.81,0,0,0-.23,0l0,0h0A11.69,11.69,0,0,1,21,37.23,10.62,10.62,0,0,1,19.76,35l-.18-.36a12.44,12.44,0,0,1-.72-4.22c0-.18,0-.35,0-.52s0-.23,0-.35a14.66,14.66,0,0,1,.36-2.12,15.72,15.72,0,0,1,1.06-2.63,12.31,12.31,0,0,1,2.1-2.7,11.65,11.65,0,0,1,15.14-.85.62.62,0,0,0,.17.11,12.46,12.46,0,0,1,2.77,3.2,11.07,11.07,0,0,1,1.31,3.32.44.44,0,0,0,.06.16c.08.5.16,1,.2,1.52A11.4,11.4,0,0,1,41,35.48m1.56-14.31a2.74,2.74,0,0,1-2.71-2.73,2.7,2.7,0,0,1,2.71-2.7,2.84,2.84,0,0,1,2.74,2.39,2.78,2.78,0,0,1-2.74,3"/><path class="cls-2" d="M22.11,40a.1.1,0,0,0,0,0v-.07s0,0,0,0"/><polygon class="cls-2" points="22.1 39.91 22.09 39.9 22.1 39.91 22.1 39.91"/><path class="cls-2" d="M35.9,35.8l-.09.06A7.09,7.09,0,0,1,31,38.06a7.54,7.54,0,0,1-8.08-7V30.9a7.1,7.1,0,0,1,1.17-4.41,7.09,7.09,0,0,1,4.18-3.2A7.42,7.42,0,0,1,35.62,25c.07.07.19.12.18.26a2.81,2.81,0,0,1,.91,1,7.59,7.59,0,0,1-.81,9.56"/></g></g></svg>