<svg xmlns="http://www.w3.org/2000/svg" viewBox="0 0 51.9 78.65"><defs><style>.cls-1{fill:#fff;}</style></defs><g id="Capa_2" data-name="Capa 2"><g id="Capa_2-2" data-name="Capa 2"><path class="cls-1" d="M48.87,47.6a.15.15,0,0,1-.14.16l-4,1.38-.58,1.44-1.24,3.07,0,.14a1,1,0,0,1,0,.12v0c0,.11-.1.15-.17.14s-.13,0-.14-.16l-.78-3.52-.3-1.33a.18.18,0,0,0-.06-.13s-3.85-2-3.9-2h0a.16.16,0,0,1-.06-.13.17.17,0,0,1,.14-.2l4-1.29a.09.09,0,0,0,.06,0l1.65-4,.26-.64a.25.25,0,0,1,0-.07.11.11,0,0,1,.06-.07.13.13,0,0,1,.1,0,.16.16,0,0,1,.14.16l1,4.77a.19.19,0,0,0,.12.16l1.71.87,2,1,.08,0a.15.15,0,0,1,.11.13.09.09,0,0,1,0,.07"/><path class="cls-1" d="M45.32,17.32a4.2,4.2,0,0,1-3-1.23h0L35.81,9.57a4.24,4.24,0,0,1,0-6l2.37-2.36a4.21,4.21,0,0,1,6,0l6.52,6.52a4.22,4.22,0,0,1,0,6L48.3,16.09A4.2,4.2,0,0,1,45.32,17.32ZM39.5,6.58l5.82,5.83L47,10.74,41.16,4.92Z"/><path class="cls-1" d="M10.74,52.09a4.2,4.2,0,0,1-3-1.23L1.23,44.33a4.22,4.22,0,0,1,0-6L3.6,36a4.22,4.22,0,0,1,6,0l6.53,6.53a4.22,4.22,0,0,1,0,6l-2.37,2.37A4.2,4.2,0,0,1,10.74,52.09ZM4.92,41.35l5.82,5.82,1.66-1.66L6.58,39.69Z"/><path class="cls-1" d="M32.58,71.66A2.36,2.36,0,0,1,31,67.53a23.44,23.44,0,0,0,7.53-11.08,2.35,2.35,0,1,1,4.53,1.28c-1.36,4.85-4.38,9.34-9,13.34A2.35,2.35,0,0,1,32.58,71.66Z"/><path class="cls-1" d="M43.13,39.74a2.35,2.35,0,0,1-2.33-2,24.38,24.38,0,0,0-4.14-10.28,2.35,2.35,0,0,1,3.71-2.9A28.66,28.66,0,0,1,45.46,37a2.34,2.34,0,0,1-2,2.67A2,2,0,0,1,43.13,39.74Z"/><path class="cls-1" d="M17.37,48.57a4.56,4.56,0,0,1-3.25-1.35L4.68,37.79a4.6,4.6,0,0,1,0-6.51L31.17,4.78a4.62,4.62,0,0,1,6.51,0l9.44,9.44a4.6,4.6,0,0,1,0,6.51h0L20.63,47.22a4.58,4.58,0,0,1-3.26,1.35Zm.08-4.68ZM8.09,34.53l9.28,9.28L43.71,17.48,34.43,8.19ZM43.79,17.4Z"/><path class="cls-1" d="M43.47,78.65H4.23a4.1,4.1,0,0,1-4.09-4.1V71a4.1,4.1,0,0,1,4.09-4.1H43.47a4.11,4.11,0,0,1,4.1,4.1v3.51A4.11,4.11,0,0,1,43.47,78.65ZM4.85,73.93h38V71.65h-38Z"/></g></g></svg>