<svg xmlns="http://www.w3.org/2000/svg" viewBox="0 0 60.19 60.18"><defs><style>.cls-1{fill:#ffda00;}</style></defs><g id="Capa_2" data-name="Capa 2"><g id="Capa_2-2" data-name="Capa 2"><path class="cls-1" d="M54.15,50.13a2.46,2.46,0,0,1-2.37-1.82l-.35-1.17-2.35-1.81-1-.67,0-1.07A2.48,2.48,0,0,1,49.7,41l1.46-.59.64-2a2.46,2.46,0,0,1,.68-1.15l.63-.65,1.06,0a2.45,2.45,0,0,1,2.37,1.84l.58,2,1.73.72A2.46,2.46,0,0,1,60,42.31l.21.41v.6a2.48,2.48,0,0,1-1.58,2.31l-1.44.62L56.5,48.4A2.46,2.46,0,0,1,54.15,50.13Zm-3.72-6.78h0Zm7.4,0Z"/><path class="cls-1" d="M24.82,36.87l9-9,10-10a2.79,2.79,0,0,1,3.54-.62,2.48,2.48,0,0,1,1.39,2.86,3.89,3.89,0,0,1-1,1.84Q37.74,32,27.64,42.05a3.68,3.68,0,0,1-5.64,0q-4.83-4.75-9.58-9.58c-1.37-1.38-1.45-3.1-.27-4.27s2.88-1.09,4.27.29c2.77,2.73,5.51,5.49,8.4,8.38"/><path class="cls-1" d="M30.1,60.18A30.09,30.09,0,1,1,60.19,30.1a29.29,29.29,0,0,1-.44,5.09,2.36,2.36,0,1,1-4.64-.83,23.69,23.69,0,0,0,.37-4.26,25.4,25.4,0,1,0-9,19.35,2.36,2.36,0,0,1,3,3.59A30,30,0,0,1,30.1,60.18Z"/></g></g></svg>