<svg xmlns="http://www.w3.org/2000/svg" viewBox="0 0 47.39 64.29"><defs><style>.cls-1{fill:#fff;}</style></defs><g id="Capa_2" data-name="Capa 2"><g id="Capa_2-2" data-name="Capa 2"><path class="cls-1" d="M27.4,10.47a.11.11,0,0,1-.08.11l-2.49,1.09-.3.95-.64,2,0,.1a.13.13,0,0,1,0,.07v0c0,.07,0,.1-.1.1s-.08,0-.1-.1L23,12.62l-.26-.84a.14.14,0,0,0-.05-.08s-2.56-1.07-2.6-1.1h0a.14.14,0,0,1-.05-.08.12.12,0,0,1,.09-.14l2.5-1s0,0,0,0l.86-2.67.13-.43s0,0,0,0a.1.1,0,0,1,0-.05.06.06,0,0,1,.06,0,.12.12,0,0,1,.1.1l.89,3a.14.14,0,0,0,.08.1L26,9.79l1.31.54.06,0a.13.13,0,0,1,.08.08v0"/><path class="cls-1" d="M23.72,64.29h-.13a3.33,3.33,0,0,1-2.4-1.18l-1.71-2c-1.69-2-3.28-3.87-4.83-5.86-4.6-5.86-9.7-13-12.78-21.72C-1.93,22.76.06,13.6,7.77,6.3a23.15,23.15,0,0,1,25.82-4c9,4.35,13.76,12,13.8,22a34.36,34.36,0,0,1-3.46,14.4C40.18,47,34.68,54.6,26.07,63.31h0A3.3,3.3,0,0,1,23.72,64.29Zm0-59.58A18.42,18.42,0,0,0,11,9.73C4.69,15.71,3.15,23,6.32,31.94,9.16,40,14,46.77,18.36,52.33c1.5,1.91,3.06,3.76,4.72,5.72l.72.85c7.57-7.83,12.48-14.72,15.83-22.17a30,30,0,0,0,3-12.46C42.65,15.92,39,10.1,31.54,6.5A18,18,0,0,0,23.67,4.71Z"/><path class="cls-1" d="M23.75,35.18l-.83,0a13.59,13.59,0,0,1-9.49-4.58,13.9,13.9,0,0,1,2.14-20.3,2.36,2.36,0,0,1,2.79,3.8,9.06,9.06,0,1,0,10.72,0,2.36,2.36,0,1,1,2.76-3.82,13.71,13.71,0,0,1,5.63,12A13.63,13.63,0,0,1,23.75,35.18Z"/></g></g></svg>