<svg xmlns="http://www.w3.org/2000/svg" viewBox="0 0 90.08 66.85"><defs><style>.cls-1{fill:#5006f2;}.cls-2{fill:#ffda00;}</style></defs><g id="Capa_2" data-name="Capa 2"><g id="Capa_2-2" data-name="Capa 2"><path class="cls-1" d="M44.38,65.73A2.36,2.36,0,0,1,42,63.37V58a2.36,2.36,0,0,1,4.72,0v5.34A2.36,2.36,0,0,1,44.38,65.73Z"/><path class="cls-1" d="M70.75,66.85h0L18,66.25A2.36,2.36,0,0,1,18,61.54l52.75.6a2.36,2.36,0,0,1,0,4.71Z"/><path class="cls-1" d="M49.16,49.14a.14.14,0,0,1-.12.14l-3.21,1.39-.39,1.23-.84,2.62,0,.12a.44.44,0,0,1,0,.1v0a.15.15,0,0,1-.14.13c-.06,0-.11,0-.12-.13l-.87-2.86-.33-1.09a.17.17,0,0,0-.06-.1l-3.35-1.43h0a.14.14,0,0,1-.06-.11.15.15,0,0,1,.11-.17L43,47.68l0,0,1.11-3.44.17-.55,0-.06a.09.09,0,0,1,0-.06.08.08,0,0,1,.08,0,.14.14,0,0,1,.13.12l1.14,3.88a.16.16,0,0,0,.11.13l1.47.61L49,49l.07,0a.16.16,0,0,1,.1.11.07.07,0,0,1,0,0"/><path class="cls-2" d="M81.6,52.58H54.78a2.36,2.36,0,1,1,0-4.71H81.6a3.77,3.77,0,0,0,3.76-3.77V8.48A3.77,3.77,0,0,0,81.6,4.71H8.48A3.77,3.77,0,0,0,4.71,8.48V44.1a3.77,3.77,0,0,0,3.77,3.77H34.09a2.36,2.36,0,0,1,0,4.71H8.48A8.48,8.48,0,0,1,0,44.1V8.48A8.48,8.48,0,0,1,8.48,0H81.6a8.49,8.49,0,0,1,8.48,8.48V44.1A8.49,8.49,0,0,1,81.6,52.58Z"/></g></g></svg>