<svg xmlns="http://www.w3.org/2000/svg" viewBox="0 0 60.19 60.18"><defs><style>.cls-1{fill:#fff;}</style></defs><g id="Capa_2" data-name="Capa 2"><g id="Capa_2-2" data-name="Capa 2"><path class="cls-1" d="M57.84,43.32a.11.11,0,0,1-.08.11l-2.5,1.08-.3,1-.65,2,0,.1a.25.25,0,0,1,0,.07v0a.11.11,0,0,1-.1.1s-.09,0-.1-.1l-.67-2.22-.25-.84a.16.16,0,0,0,0-.08s-2.56-1.08-2.6-1.11h0a.14.14,0,0,1-.05-.08.12.12,0,0,1,.09-.14l2.51-1,0,0,.86-2.67.13-.42s0,0,0,0a.1.1,0,0,1,0-.05.07.07,0,0,1,.06,0,.1.1,0,0,1,.1.09l.89,3a.11.11,0,0,0,.08.1l1.14.47,1.32.55,0,0a.13.13,0,0,1,.08.08v0"/><path class="cls-1" d="M30.1,60.18A30.09,30.09,0,1,1,60.19,30.1a29.29,29.29,0,0,1-.44,5.09,2.36,2.36,0,1,1-4.64-.83,23.69,23.69,0,0,0,.37-4.26,25.4,25.4,0,1,0-9,19.35,2.36,2.36,0,0,1,3,3.59A30,30,0,0,1,30.1,60.18Z"/><path class="cls-1" d="M30.93,11.09c1.57.75,2,2,2,3.72-.07,7.76,0,15.52,0,23.28v1.28c.31-.27.53-.43.72-.62,2.08-2.06,4.14-4.14,6.23-6.18a2.77,2.77,0,0,1,4.59,2.85,3.83,3.83,0,0,1-.88,1.31q-5.66,5.7-11.35,11.38a2.74,2.74,0,0,1-4.22,0q-5.73-5.7-11.41-11.46a9,9,0,0,1-1-1.76v-.6c1.14-3,3.22-3.38,5.46-1.14l5.57,5.58c.19.19.41.35.75.63V38.09c0-7.76,0-15.52,0-23.27,0-1.71.46-3,2-3.73Z"/></g></g></svg>