<svg xmlns="http://www.w3.org/2000/svg" viewBox="0 0 60.19 60.18"><defs><style>.cls-1{fill:#fff;}</style></defs><g id="Capa_2" data-name="Capa 2"><g id="Capa_2-2" data-name="Capa 2"><path class="cls-1" d="M57.84,43.32a.11.11,0,0,1-.08.11l-2.5,1.08-.3,1-.65,2,0,.1a.25.25,0,0,1,0,.07v0a.1.1,0,0,1-.1.09.09.09,0,0,1-.1-.09l-.67-2.22-.26-.84a.09.09,0,0,0,0-.08s-2.57-1.08-2.61-1.11h0a.2.2,0,0,1,0-.08.12.12,0,0,1,.08-.14l2.52-1,0,0,.85-2.67.14-.43s0,0,0,0a.1.1,0,0,1,0-.05.07.07,0,0,1,.06,0,.11.11,0,0,1,.1.1l.88,3a.14.14,0,0,0,.08.1l1.15.47,1.31.55.06,0a.13.13,0,0,1,.08.08v0"/><path class="cls-1" d="M30.1,60.18A30.09,30.09,0,1,1,60.19,30.1a29.47,29.47,0,0,1-.44,5.09,2.36,2.36,0,1,1-4.64-.83,23.85,23.85,0,0,0,.37-4.26,25.4,25.4,0,1,0-9,19.35,2.36,2.36,0,0,1,3,3.59A30,30,0,0,1,30.1,60.18Z"/><path class="cls-1" d="M49.1,30.92c-.76,1.57-2,2-3.73,2-7.76-.07-15.52,0-23.28,0H20.81c.27.31.43.53.62.72q3.11,3.11,6.19,6.23a2.77,2.77,0,0,1-2.86,4.59,4,4,0,0,1-1.3-.88q-5.7-5.65-11.38-11.35a2.74,2.74,0,0,1,0-4.22q5.7-5.73,11.46-11.41a8.12,8.12,0,0,1,1.76-1.05h.6c2.95,1.14,3.38,3.22,1.14,5.46l-5.58,5.57c-.19.19-.35.41-.63.75H22.1c7.76,0,15.51,0,23.27,0,1.71,0,3,.46,3.73,2Z"/></g></g></svg>