<svg xmlns="http://www.w3.org/2000/svg" viewBox="0 0 49.06 61.98"><defs><style>.cls-1{fill:#5006f2;}.cls-2{fill:#ffda00;}</style></defs><g id="Capa_2" data-name="Capa 2"><g id="Capa_2-2" data-name="Capa 2"><path class="cls-1" d="M29,56.23a.14.14,0,0,1-.11.14l-3.22,1.39L25.23,59l-.84,2.62,0,.12a.54.54,0,0,1,0,.1v0a.15.15,0,0,1-.14.13.13.13,0,0,1-.12-.13L23.21,59l-.34-1.09a.13.13,0,0,0-.06-.1l-3.35-1.43h0a.17.17,0,0,1-.06-.11.15.15,0,0,1,.11-.17l3.24-1.32a.07.07,0,0,0,.05,0l1.11-3.44.17-.55,0-.06a.09.09,0,0,1,0-.06.13.13,0,0,1,.08,0,.14.14,0,0,1,.13.12l1.14,3.88a.15.15,0,0,0,.11.13l1.47.61,1.7.7.07,0a.16.16,0,0,1,.1.11.07.07,0,0,1,0,0"/><path class="cls-2" d="M17.63,26.12a7.63,7.63,0,0,1-7.53-6.58,6.33,6.33,0,0,1-.07-1V7.6A7.6,7.6,0,0,1,23,2.24,7.52,7.52,0,0,1,25.24,7.6V18.39l-.11.35a1.6,1.6,0,0,0-.08.36,2,2,0,0,0,0,.48l.06.47L25,20.5A7.63,7.63,0,0,1,17.63,26.12Zm0-21.41A2.9,2.9,0,0,0,14.74,7.6V18.51c0,.13,0,.25,0,.37a2.9,2.9,0,0,0,5.56.71,8,8,0,0,1,.05-1.07,6.62,6.62,0,0,1,.16-.82V7.6a2.9,2.9,0,0,0-2.9-2.89ZM22.88,18h0Z"/><path class="cls-2" d="M24.49,20.39l-3.93-.65,0-2V8.52A8.07,8.07,0,0,1,23,2.72,7.4,7.4,0,0,1,28.46.62a7.55,7.55,0,0,1,5,2.24,7.44,7.44,0,0,1,2.22,5.36v8.24l-1.65,1.45-6.41-.84a2.36,2.36,0,0,0-2.49,1.49Zm8.87-5h0Zm-6-3.09a7.42,7.42,0,0,1,.94.06l2.74.36V8.22a2.91,2.91,0,0,0-2.76-2.89,2.69,2.69,0,0,0-2,.8,3.3,3.3,0,0,0-1,2.39v4.14A7,7,0,0,1,27.34,12.34Z"/><path class="cls-2" d="M46.23,20.61l-3.29-1.43a3,3,0,0,0-.63-.17L31,17.53V9.85A7.6,7.6,0,0,1,44,4.47a7.53,7.53,0,0,1,2.24,5.38Zm-10.5-7.22,5.79.76V9.85a2.9,2.9,0,0,0-5.79,0Z"/><path class="cls-1" d="M42,28.38c-.27,0-.55,0-.81-.05l-1.4-.19L26.44,26.39a7.1,7.1,0,0,1-1.8-.49,6.91,6.91,0,0,1-4.28-5.78,6.69,6.69,0,0,1,0-1.61,7.39,7.39,0,0,1,.27-1.21,7,7,0,0,1,7.64-4.89l14.64,1.92a6.94,6.94,0,0,1,1.88.53A7.08,7.08,0,0,1,49,22.24h0A6.8,6.8,0,0,1,48,25,7,7,0,0,1,42,28.38ZM27.37,17.07a2.38,2.38,0,0,0-2.24,1.65,2.45,2.45,0,0,0-.08.37,2.13,2.13,0,0,0,0,.5,2.28,2.28,0,0,0,1.42,2,2.39,2.39,0,0,0,.62.17L41.7,23.64l.31,0a2.3,2.3,0,0,0,2-1.13,2.11,2.11,0,0,0,.32-.91,2.33,2.33,0,0,0-1.39-2.44,2.72,2.72,0,0,0-.62-.17L27.67,17.09A1.51,1.51,0,0,0,27.37,17.07Zm19.29,4.86h0Z"/><path class="cls-1" d="M34.18,57.23a2.36,2.36,0,0,1-.78-4.58,7.84,7.84,0,0,0,3-2.65,14.28,14.28,0,0,0-.12-3.54c-.22-2.16-.42-4.2.16-5.83A23.32,23.32,0,0,1,40,35a23.72,23.72,0,0,0,2.72-4,41.67,41.67,0,0,0,1-7.43,2.36,2.36,0,1,1,4.71.31c-.08,1.1-.48,6.71-1.32,8.85a24.28,24.28,0,0,1-3.36,5.16,22.9,22.9,0,0,0-2.86,4.31A14.14,14.14,0,0,0,40.94,46a14.82,14.82,0,0,1,0,5.34c-.71,2.46-4,5.1-5.93,5.77A2.36,2.36,0,0,1,34.18,57.23Z"/><path class="cls-1" d="M14.17,57.61a2.83,2.83,0,0,1-.41,0c-2-.35-5.42-2-6.69-4.66-.63-1.33-.63-3.18-.58-6.11A21.26,21.26,0,0,0,6.27,42a18.65,18.65,0,0,0-2.45-3.72,20.56,20.56,0,0,1-3.1-4.94C-.54,29.64.2,19.9.37,18a2.35,2.35,0,0,1,4.69.39c-.37,4.36-.57,11.4.12,13.42a18.54,18.54,0,0,0,2.4,3.63,19.52,19.52,0,0,1,3.17,5.12,21.18,21.18,0,0,1,.45,6.34,21.38,21.38,0,0,0,.14,4,5.74,5.74,0,0,0,3.23,2,2.36,2.36,0,0,1-.4,4.68Z"/><path class="cls-1" d="M24.93,38.53a2.35,2.35,0,0,1-2.35-2.21c-.06-1-.3-5.89.9-8.34C24,26.9,24.6,25.53,25,24.53l.49-1.14.16-.31a2.36,2.36,0,0,1,4.16,2.22c-.13.28-.29.65-.48,1.09-.45,1.05-1.07,2.48-1.64,3.65-.43.87-.57,3.8-.44,6a2.36,2.36,0,0,1-2.21,2.5Z"/><path class="cls-2" d="M7.55,25.12A7.19,7.19,0,0,1,.36,17.93V9.44a7.19,7.19,0,1,1,14.37,0v8.49A7.19,7.19,0,0,1,7.55,25.12ZM7.55,7A2.48,2.48,0,0,0,5.07,9.44v8.49a2.48,2.48,0,1,0,4.95,0V9.44A2.48,2.48,0,0,0,7.55,7Z"/></g></g></svg>