<svg xmlns="http://www.w3.org/2000/svg" viewBox="0 0 117.89 65.16"><defs><style>.cls-1{fill:#dadada;}</style></defs><g id="Capa_2" data-name="Capa 2"><g id="Capa_2-2" data-name="Capa 2"><path class="cls-1" d="M59.7,37.06A13.42,13.42,0,1,1,73.11,23.65,13.43,13.43,0,0,1,59.7,37.06ZM59.7,15a8.7,8.7,0,1,0,8.7,8.7A8.71,8.71,0,0,0,59.7,15Z"/><path class="cls-1" d="M21.86,27.7A13.42,13.42,0,1,1,35.27,14.28,13.43,13.43,0,0,1,21.86,27.7Zm0-22.12a8.7,8.7,0,1,0,8.7,8.7A8.71,8.71,0,0,0,21.86,5.58Z"/><path class="cls-1" d="M93.36,26.83a13.42,13.42,0,1,1,13.41-13.42A13.43,13.43,0,0,1,93.36,26.83Zm0-22.12a8.7,8.7,0,1,0,8.7,8.7A8.71,8.71,0,0,0,93.36,4.71Z"/><path class="cls-1" d="M80.38,63.84A2.35,2.35,0,0,1,78,61.49,18.33,18.33,0,0,0,46.45,48.82a18,18,0,0,0-3,4.16,2.36,2.36,0,0,1-4.18-2.19A23.39,23.39,0,0,1,43,45.56a23,23,0,0,1,39.7,15.93A2.36,2.36,0,0,1,80.38,63.84Z"/><path class="cls-1" d="M115.54,53.5a2.36,2.36,0,0,1-2.36-2.36,18.33,18.33,0,0,0-34.57-8.5,2.36,2.36,0,0,1-4.17-2.2A23.1,23.1,0,0,1,94.85,28.1a23.07,23.07,0,0,1,23,23A2.36,2.36,0,0,1,115.54,53.5Z"/><path class="cls-1" d="M2.36,54.44A2.36,2.36,0,0,1,0,52.09,23,23,0,0,1,39.7,36.16a23.39,23.39,0,0,1,3.76,5.23,2.36,2.36,0,0,1-4.18,2.19A18.33,18.33,0,0,0,4.71,52.09,2.35,2.35,0,0,1,2.36,54.44Z"/><path class="cls-1" d="M44,59.68a.15.15,0,0,1-.11.14l-3.07,1.32-.37,1.17-.8,2.5,0,.12a.32.32,0,0,1,0,.09v0a.12.12,0,0,1-.13.12s-.1,0-.12-.12l-.82-2.73-.32-1a.11.11,0,0,0-.05-.1S35,59.85,35,59.81h0a.23.23,0,0,1-.05-.1.16.16,0,0,1,.1-.17l3.09-1.25s0,0,0,0L39.2,55l.17-.53a.43.43,0,0,0,0-.05.16.16,0,0,1,0-.07.13.13,0,0,1,.2.1l1.09,3.7a.14.14,0,0,0,.1.12l1.41.58,1.62.67.07,0a.13.13,0,0,1,.09.1.07.07,0,0,1,0,0"/></g></g></svg>