<svg xmlns="http://www.w3.org/2000/svg" viewBox="0 0 60.21 62.85"><defs><style>.cls-1{fill:#5006f2;}</style></defs><g id="Capa_2" data-name="Capa 2"><g id="Capa_2-2" data-name="Capa 2"><path class="cls-1" d="M33.8,4.35a.11.11,0,0,1-.08.12L31.23,5.55l-.3,1-.64,2,0,.1a.31.31,0,0,1,0,.08h0c0,.07-.06.1-.1.1s-.09,0-.1-.1l-.68-2.21-.26-.84s0-.07-.05-.08-2.56-1.08-2.6-1.11h0s0,0-.05-.08a.12.12,0,0,1,.09-.13l2.51-1,0,0L29.89.54,30,.12a.43.43,0,0,0,0,0,.1.1,0,0,1,0,0l.06,0c.05,0,.09,0,.1.1l.89,3a.12.12,0,0,0,.08.1l1.15.47,1.32.54,0,0a.13.13,0,0,1,.08.08v0"/><path class="cls-1" d="M30.16,62.85A30.1,30.1,0,0,1,14.62,7a29.44,29.44,0,0,1,4.59-2.24,2.36,2.36,0,1,1,1.69,4.4A24.43,24.43,0,0,0,17.05,11,25.38,25.38,0,0,0,43.17,54.52,25.38,25.38,0,0,0,38.26,8.73a2.35,2.35,0,0,1,1.51-4.46,30.09,30.09,0,0,1-9.61,58.58Z"/><path class="cls-1" d="M8.52,25.46c3.85,3.33,7.37,6.41,10.93,9.44a1.61,1.61,0,0,1,.63,1.86c-.34,1.21-.59,2.45-.88,3.67-.77,3.36-1.55,6.72-2.39,10.38L18.3,50c3.63-2.19,7.26-4.36,10.86-6.58a1.59,1.59,0,0,1,1.94,0c2.52,1.58,5.08,3.09,7.62,4.62l4.65,2.8c-.06-.46-.07-.72-.13-1-1-4.25-2-8.5-3-12.73a2,2,0,0,1,.71-2.31c3.19-2.64,6.3-5.38,9.43-8.09.39-.33.75-.69,1.33-1.22-4.94-.41-9.55-.81-14.18-1.15A1.88,1.88,0,0,1,35.65,23c-1.59-4-3.28-7.88-4.95-11.82-.14-.34-.34-.66-.61-1.2-1.71,4-3.48,7.77-4.86,11.65-.77,2.16-2,2.74-4.11,2.84-4.08.18-8.14.66-12.6,1"/></g></g></svg>