<svg xmlns="http://www.w3.org/2000/svg" viewBox="0 0 60.03 60.02"><defs><style>.cls-1{fill:#dadada;}</style></defs><g id="Capa_2" data-name="Capa 2"><g id="Capa_2-2" data-name="Capa 2"><path class="cls-1" d="M54.87,60H5.16a1,1,0,0,0-.26-.11,6.11,6.11,0,0,1-3.53-2.13A7.27,7.27,0,0,1,0,54.86V5.16A1.86,1.86,0,0,0,.1,5,6,6,0,0,1,6.19,0H53.84A6.3,6.3,0,0,1,55.46.2a6,6,0,0,1,4.57,6V53.77c0,.17,0,.35,0,.52a6,6,0,0,1-2,4.21A7.31,7.31,0,0,1,54.87,60M51,51c0-.17,0-.29,0-.4,0-5.55,0-11.1,0-16.64a10.13,10.13,0,0,0-3.76-8c-3.21-2.72-7.73-3.62-11.73-.81A28.21,28.21,0,0,0,33,27.33V24.07h-9V51h9V35.72c0-.39,0-.78,0-1.17a4.53,4.53,0,0,1,5.64-3.74A4.58,4.58,0,0,1,42,35.45c0,4.94,0,9.89,0,14.83V51ZM9.05,51H18V24H9.05Zm9.84-37.45a5.4,5.4,0,1,0-5.4,5.38,5.41,5.41,0,0,0,5.4-5.38"/></g></g></svg>