<svg xmlns="http://www.w3.org/2000/svg" viewBox="0 0 90.35 60.54"><defs><style>.cls-1{fill:#5006f2;}.cls-2{fill:#ffda00;}</style></defs><g id="Capa_2" data-name="Capa 2"><g id="Capa_2-2" data-name="Capa 2"><path class="cls-1" d="M49.72,49.48a.12.12,0,0,1-.09.12L47,50.74l-.32,1L46,53.92l0,.1a.31.31,0,0,1,0,.08v0c0,.07-.06.1-.11.1s-.09,0-.11-.1L45,51.75l-.27-.89a.19.19,0,0,0-.05-.09s-2.73-1.15-2.77-1.18h0a.1.1,0,0,1,0-.08.13.13,0,0,1,.09-.15l2.67-1.08,0,0,.91-2.84.15-.45a.09.09,0,0,1,0-.05.09.09,0,0,1,0-.06l.07,0s.09,0,.11.1l.94,3.21a.14.14,0,0,0,.08.1l1.22.5,1.4.58.06,0a.09.09,0,0,1,.08.08.09.09,0,0,1,0,0"/><path class="cls-2" d="M78.4,53.76H60.72a2.36,2.36,0,0,1,0-4.71H78.4a1.38,1.38,0,0,0,1.38-1.37V6.09A1.38,1.38,0,0,0,78.4,4.71H12.89a1.37,1.37,0,0,0-1.36,1.38V47.68a1.37,1.37,0,0,0,1.36,1.37H33a2.36,2.36,0,1,1,0,4.71H12.89a6.08,6.08,0,0,1-6.07-6.08V6.09A6.08,6.08,0,0,1,12.89,0H78.4a6.09,6.09,0,0,1,6.09,6.09V47.68A6.09,6.09,0,0,1,78.4,53.76Z"/><path class="cls-1" d="M29.8,60.54c-10.75,0-19.32,0-20.58-.12-3.79-.28-7.13-4.65-8.78-7.23a2.63,2.63,0,0,1-.12-2.71,2.65,2.65,0,0,1,2.36-1.43H33a2.36,2.36,0,1,1,0,4.71H6.79a5.62,5.62,0,0,0,2.78,2c3.32.24,66.59,0,69.3,0a12,12,0,0,0,5.22-2H60.72a2.36,2.36,0,0,1,0-4.71h27a2.65,2.65,0,0,1,2.07,1,2.69,2.69,0,0,1,.54,2.26c-1.39,7.17-10.68,8.08-11.07,8.12H79C78.63,60.43,50.29,60.54,29.8,60.54Zm55.87-9.18v0ZM4.36,50.58l.07.11Z"/></g></g></svg>