<svg xmlns="http://www.w3.org/2000/svg" viewBox="0 0 41.36 55.79"><defs><style>.cls-1{fill:#5006f2;}</style></defs><g id="Capa_2" data-name="Capa 2"><g id="Capa_2-2" data-name="Capa 2"><path class="cls-1" d="M36.67,55.79a2,2,0,0,1-.43,0L20.68,52.15,5.12,55.74a1.93,1.93,0,0,1-2.36-1.88V36.14a1.93,1.93,0,0,1,3.86,0V51.43l13.63-3.14a1.83,1.83,0,0,1,.87,0l13.62,3.14V36.14a1.93,1.93,0,0,1,3.86,0V53.86a1.93,1.93,0,0,1-1.93,1.93"/><path class="cls-1" d="M25.9,6.15a.15.15,0,0,1-.12.16L22.26,7.83l-.43,1.34L20.92,12l0,.14a.22.22,0,0,1,0,.1v0a.16.16,0,0,1-.15.14.14.14,0,0,1-.13-.14l-.95-3.13L19.26,8a.24.24,0,0,0-.06-.11s-3.62-1.52-3.67-1.56h0A.19.19,0,0,1,15.58,6l3.54-1.44a.07.07,0,0,0,.06,0L20.39.77l.19-.6a.21.21,0,0,1,0-.06.14.14,0,0,1,0-.08.12.12,0,0,1,.09,0,.14.14,0,0,1,.13.14l1.25,4.24a.19.19,0,0,0,.12.14l1.61.67L25.7,6l.08,0a.16.16,0,0,1,.11.12s0,0,0,.05"/><path class="cls-1" d="M20.68,45.65A20.68,20.68,0,0,1,12,6.18a1.93,1.93,0,0,1,1.61,3.5A16.83,16.83,0,1,0,37.5,25a16.74,16.74,0,0,0-9.39-15.1,1.93,1.93,0,0,1,1.71-3.46,20.69,20.69,0,0,1-9.14,39.24"/><path class="cls-1" d="M17.53,35.57a1.72,1.72,0,0,1-1.25-.52l-8-8a1.77,1.77,0,0,1,2.51-2.51l6.78,6.78L29.62,19.21a1.75,1.75,0,0,1,2.5,0,1.77,1.77,0,0,1,0,2.5L18.78,35.05a1.74,1.74,0,0,1-1.25.52"/></g></g></svg>