<svg xmlns="http://www.w3.org/2000/svg" viewBox="0 0 56.35 82.53"><defs><style>.cls-1{fill:#dadada;}</style></defs><g id="Capa_2" data-name="Capa 2"><g id="Capa_2-2" data-name="Capa 2"><path class="cls-1" d="M48.87,51.48a.16.16,0,0,1-.14.16l-4,1.38-.58,1.43-1.24,3.08-.06.14a.34.34,0,0,1,0,.12v0c0,.11-.1.15-.17.14s-.13-.05-.14-.16l-.78-3.52-.3-1.34a.2.2,0,0,0-.06-.13s-3.85-2-3.91-2h0a.26.26,0,0,1-.06-.13.19.19,0,0,1,.15-.2l4-1.29.06,0,1.65-4,.26-.64a.25.25,0,0,1,0-.07.16.16,0,0,1,.06-.08.16.16,0,0,1,.1,0c.07,0,.13.06.14.16l1,4.77a.18.18,0,0,0,.11.16l1.72.87,2,1a.25.25,0,0,1,.08,0,.18.18,0,0,1,.11.13s0,.05,0,.07"/><path class="cls-1" d="M49.76,17.32a4.22,4.22,0,0,1-3-1.23L40.26,9.56a4.22,4.22,0,0,1,0-6l2.37-2.36a4.16,4.16,0,0,1,3-1.24h0a4.19,4.19,0,0,1,3,1.24l6.52,6.52a4.2,4.2,0,0,1,0,6l-2.37,2.37A4.2,4.2,0,0,1,49.76,17.32ZM43.94,6.58l5.82,5.82,1.67-1.66L45.61,4.92Z"/><path class="cls-1" d="M10.74,56a4.2,4.2,0,0,1-3-1.23h0L1.23,48.21a4.22,4.22,0,0,1,0-6L3.6,39.88a4.22,4.22,0,0,1,6,0l6.53,6.53a4.22,4.22,0,0,1,0,6l-2.37,2.37A4.2,4.2,0,0,1,10.74,56ZM4.92,45.23l5.82,5.82,1.66-1.66L6.58,43.57Z"/><path class="cls-1" d="M32.58,75.53A2.35,2.35,0,0,1,31,71.4c3.88-3.39,6.41-7.11,7.52-11.07a2.36,2.36,0,0,1,4.54,1.27c-1.36,4.86-4.38,9.35-9,13.35A2.35,2.35,0,0,1,32.58,75.53Z"/><path class="cls-1" d="M43.13,43.62a2.35,2.35,0,0,1-2.33-2,24.08,24.08,0,0,0-4.14-10.27,2.35,2.35,0,0,1,3.71-2.9,28.66,28.66,0,0,1,5.09,12.49,2.35,2.35,0,0,1-2,2.67Z"/><path class="cls-1" d="M17.37,52.45a4.56,4.56,0,0,1-3.25-1.35L4.68,41.66a4.6,4.6,0,0,1,0-6.51L31.17,8.66a4.62,4.62,0,0,1,6.51,0l9.44,9.44a4.6,4.6,0,0,1,0,6.51L20.63,51.1A4.58,4.58,0,0,1,17.37,52.45Zm-9.28-14,9.28,9.28L43.71,21.36l-9.29-9.29Zm35.7-17.13Z"/><path class="cls-1" d="M43.47,82.53H4.23a4.1,4.1,0,0,1-4.09-4.1V74.92a4.1,4.1,0,0,1,4.09-4.1H43.47a4.11,4.11,0,0,1,4.1,4.1v3.51A4.11,4.11,0,0,1,43.47,82.53ZM4.85,77.81h38V75.53h-38Z"/></g></g></svg>