<svg xmlns="http://www.w3.org/2000/svg" viewBox="0 0 90.08 66.85"><defs><style>.cls-1{fill:#5006f2;}</style></defs><g id="Capa_2" data-name="Capa 2"><g id="Capa_2-2" data-name="Capa 2"><path class="cls-1" d="M45,65.73a2.36,2.36,0,0,1-2.36-2.36V58a2.36,2.36,0,1,1,4.71,0v5.34A2.36,2.36,0,0,1,45,65.73Z"/><path class="cls-1" d="M71.41,66.85h0l-52.74-.6a2.36,2.36,0,0,1,.05-4.71l52.75.6a2.36,2.36,0,0,1,0,4.71Z"/><path class="cls-1" d="M49.81,49.14a.13.13,0,0,1-.11.14l-3.21,1.39-.4,1.23-.83,2.62,0,.12a.22.22,0,0,1,0,.1v0a.13.13,0,0,1-.13.13c-.06,0-.11,0-.12-.13l-.87-2.86-.33-1.09a.17.17,0,0,0-.06-.1l-3.36-1.43h0a.17.17,0,0,1-.06-.11.15.15,0,0,1,.12-.17l3.24-1.32.05,0,1.1-3.44.18-.55,0-.06a.07.07,0,0,1,0-.06.08.08,0,0,1,.08,0,.14.14,0,0,1,.13.12l1.14,3.88a.17.17,0,0,0,.1.13l1.48.61,1.7.7.07,0a.16.16,0,0,1,.1.1v.06"/><path class="cls-1" d="M81.6,52.58H54.78a2.36,2.36,0,1,1,0-4.71H81.6a3.77,3.77,0,0,0,3.76-3.77V8.48A3.77,3.77,0,0,0,81.6,4.71H8.48A3.77,3.77,0,0,0,4.71,8.48V44.1a3.77,3.77,0,0,0,3.77,3.77H34.09a2.36,2.36,0,0,1,0,4.71H8.48A8.48,8.48,0,0,1,0,44.1V8.48A8.48,8.48,0,0,1,8.48,0H81.6a8.49,8.49,0,0,1,8.48,8.48V44.1A8.49,8.49,0,0,1,81.6,52.58Z"/></g></g></svg>