<svg xmlns="http://www.w3.org/2000/svg" viewBox="0 0 64.98 63.06"><defs><style>.cls-1{fill:#dadada;}</style></defs><g id="Capa_2" data-name="Capa 2"><g id="Capa_2-2" data-name="Capa 2"><path class="cls-1" d="M35.77,29.8a.13.13,0,0,1-.09.12L33.06,31l-.32,1-.68,2.13,0,.11s0,0,0,.07v0a.11.11,0,0,1-.11.1.11.11,0,0,1-.1-.1L31.1,32l-.27-.88a.12.12,0,0,0,0-.08s-2.69-1.14-2.73-1.17h0a.13.13,0,0,1-.05-.09.12.12,0,0,1,.09-.14l2.64-1.07,0,0,.9-2.8.14-.45a.43.43,0,0,0,0-.05.1.1,0,0,1,0-.05.09.09,0,0,1,.07,0c.05,0,.09,0,.1.11L33,28.47a.14.14,0,0,0,.08.11l1.2.5,1.39.57a.12.12,0,0,1,.06,0,.09.09,0,0,1,.07.08.09.09,0,0,1,0,.05"/><path class="cls-1" d="M40.89,31.83a2.36,2.36,0,0,1,0-4.72h4.65c3.39,0,6.78,0,10.17,0A3.52,3.52,0,0,1,53.21,24c-1-5.25-2-10.54-3-15.5-.57-2.82-1.65-3.77-4.3-3.77q-13.47,0-26.94,0c-2.59,0-3.76,1-4.31,3.8-.33,1.73-.68,3.47-1,5.2-.68,3.43-1.36,6.85-2,10.29A3.51,3.51,0,0,1,9.2,27.07h2.92c3.49,0,6.7,0,11,0a2.36,2.36,0,1,1,0,4.72c-4.31,0-7.52,0-11,0l-6.61,0H5.24a4.47,4.47,0,0,1-3.38-1c-.21-.2-2.32-2.28-1.77-4.53a5.45,5.45,0,0,1,3.56-3.56,10.37,10.37,0,0,1,3.51-.22C7.77,19.23,8.41,16,9,12.8q.53-2.6,1-5.19C11.31,1.34,15.61,0,19,0Q32.48,0,46,0c4.9,0,7.91,2.54,8.91,7.56.94,4.78,1.94,9.84,2.87,14.9.84,0,1.65,0,2.43,0,2.91.1,4.84,2,4.82,4.67s-2,4.58-4.91,4.59c-4.84,0-9.69.06-14.52.06H40.89ZM5.11,27.35l0,0Z"/><path class="cls-1" d="M16.16,63.06a16.58,16.58,0,0,1-2.1-.14A15.3,15.3,0,1,1,30.81,43.19s0,0,0,.05,0,0,.05,0h.46a16.71,16.71,0,0,0,2.83,0c.14-.26.36-.86.56-1.4l.19-.51c2.5-6.63,10.22-10.3,17.58-8.36a15.31,15.31,0,1,1-18,20.65,38.83,38.83,0,0,0-4.05-.08A15.34,15.34,0,0,1,16.16,63.06Zm.17-25.9a10,10,0,0,0-1.62.13,10.6,10.6,0,0,0,0,21,10.66,10.66,0,0,0,11.71-7.49c.59-2,2.75-2,5.24-2,4.85,0,6.35.44,6.87,2.12A10.59,10.59,0,1,0,51.29,37.49c-5-1.33-10.31,1.07-12,5.47l-.19.49c-1.48,4-2.75,4.73-8,4.5h-.25a4.23,4.23,0,0,1-4.59-3.41A10.41,10.41,0,0,0,16.33,37.16ZM34,52.3Zm-5.35-.86Z"/></g></g></svg>