<svg xmlns="http://www.w3.org/2000/svg" viewBox="0 0 57.96 51.27"><defs><style>.cls-1{fill:#dadada;}</style></defs><g id="Capa_2" data-name="Capa 2"><g id="Capa_2-2" data-name="Capa 2"><path class="cls-1" d="M56,31.59a1.93,1.93,0,0,1-1.93-1.93V6.1a2.25,2.25,0,0,0-2.25-2.24H6.1A2.24,2.24,0,0,0,3.86,6.1V29.66a1.93,1.93,0,0,1-3.86,0V6.1A6.11,6.11,0,0,1,6.1,0H51.85A6.12,6.12,0,0,1,58,6.1V29.66A1.94,1.94,0,0,1,56,31.59"/><path class="cls-1" d="M38.35,51.27H19.71V38.66H38.35ZM23.58,47.41H34.49v-4.9H23.58Z"/><path class="cls-1" d="M42,51.27H16.1a1.93,1.93,0,1,1,0-3.86H42a1.93,1.93,0,0,1,0,3.86"/><path class="cls-1" d="M51.85,42.51H6.1A6.11,6.11,0,0,1,0,36.41V27.73H22a1.93,1.93,0,0,1,0,3.86H3.86v4.82A2.24,2.24,0,0,0,6.1,38.66H51.85a2.25,2.25,0,0,0,2.25-2.25V31.59H35.64a1.93,1.93,0,0,1,0-3.86H58v8.68a6.11,6.11,0,0,1-6.11,6.1"/><path class="cls-1" d="M32.36,29.62a.13.13,0,0,1-.08.11l-2.28,1-.28.86-.59,1.86,0,.09s0,0,0,.07h0c0,.07,0,.09-.09.09s-.08,0-.09-.09l-.61-2-.24-.76a.08.08,0,0,0,0-.08l-2.37-1h0a.12.12,0,0,1-.05-.07c0-.06,0-.12.08-.13L28,28.59l0,0,.79-2.44.12-.39s0,0,0,0a.1.1,0,0,1,0-.05l.05,0a.1.1,0,0,1,.09.09l.81,2.75a.11.11,0,0,0,.07.09L31,29l1.2.5.05,0a.08.08,0,0,1,.07.07.06.06,0,0,1,0,0"/></g></g></svg>