<svg xmlns="http://www.w3.org/2000/svg" viewBox="0 0 60.19 60.18"><defs><style>.cls-1{fill:#dadada;}</style></defs><g id="Capa_2" data-name="Capa 2"><g id="Capa_2-2" data-name="Capa 2"><path class="cls-1" d="M57.84,43.32a.13.13,0,0,1-.08.12l-2.5,1.07-.3,1-.65,2,0,.1s0,0,0,.07v0c0,.07,0,.1-.1.1s-.09,0-.1-.1l-.67-2.22-.26-.84a.1.1,0,0,0,0-.08s-2.56-1.08-2.6-1.11h0a.14.14,0,0,1-.05-.08.12.12,0,0,1,.09-.14l2.51-1,0,0,.86-2.67.13-.42a.43.43,0,0,0,0,0,.1.1,0,0,1,0-.05.07.07,0,0,1,.06,0,.1.1,0,0,1,.1.09l.89,3a.11.11,0,0,0,.08.1l1.14.47,1.32.55,0,0a.13.13,0,0,1,.08.08v0"/><path class="cls-1" d="M24.82,36.87l9-9,10-10a2.79,2.79,0,0,1,3.54-.62,2.5,2.5,0,0,1,1.39,2.86,4,4,0,0,1-1,1.84Q37.75,32,27.64,42.05a3.68,3.68,0,0,1-5.64,0c-3.22-3.17-6.4-6.37-9.58-9.58-1.37-1.38-1.45-3.1-.27-4.27s2.89-1.09,4.28.29c2.76,2.73,5.5,5.49,8.39,8.38"/><path class="cls-1" d="M30.1,60.18A30.09,30.09,0,1,1,60.19,30.1a29.29,29.29,0,0,1-.44,5.09,2.36,2.36,0,1,1-4.64-.83,23.69,23.69,0,0,0,.37-4.26,25.4,25.4,0,1,0-9,19.35,2.36,2.36,0,0,1,3,3.59A30,30,0,0,1,30.1,60.18Z"/></g></g></svg>