<svg xmlns="http://www.w3.org/2000/svg" viewBox="0 0 60.63 62.42"><defs><style>.cls-1{fill:#dadada;}.cls-2{fill:#fff;}</style></defs><g id="Capa_2" data-name="Capa 2"><g id="Capa_2-2" data-name="Capa 2"><path class="cls-1" d="M53.6,62.42H7a7,7,0,0,1-7-7V7A7,7,0,0,1,7,0H53.6a7,7,0,0,1,7,7V55.39a7,7,0,0,1-7,7"/><path class="cls-2" d="M30,57.6A25.68,25.68,0,1,1,55.63,32,25.66,25.66,0,0,1,30,57.6m-4.62-38c-1,.07-2.93.18-4.85.35a33.82,33.82,0,0,0-6.59,1.28,2.44,2.44,0,0,0-1.63,1.39,2.41,2.41,0,0,0,.4,2.75,2.51,2.51,0,0,0,2.64.72c1.48-.35,2.95-.74,4.45-.95a46.47,46.47,0,0,1,14.93.3A31.26,31.26,0,0,1,45.14,29.1a2.07,2.07,0,0,0,1.25.4,2.68,2.68,0,0,0,2.45-1.77,2.44,2.44,0,0,0-1.15-3,44.82,44.82,0,0,0-5-2.36c-5.29-2-10.8-2.69-17.33-2.76m-.56,8.89c-1.07.1-3.18.22-5.26.53a33,33,0,0,0-4.37,1A1.92,1.92,0,0,0,13.78,32,2,2,0,0,0,15,34a2.79,2.79,0,0,0,2.16,0,29.56,29.56,0,0,1,7.12-1.08,36.46,36.46,0,0,1,9.54.94A29,29,0,0,1,41.93,37,2.13,2.13,0,0,0,45,36.37a2,2,0,0,0-.79-2.94,39.66,39.66,0,0,0-3.6-1.87,39.7,39.7,0,0,0-15.86-3M26.05,37a42.17,42.17,0,0,0-9.8,1.15,1.7,1.7,0,0,0-1,2.81,1.77,1.77,0,0,0,1.92.51,41.18,41.18,0,0,1,8-1,28.16,28.16,0,0,1,7.2.7,21.58,21.58,0,0,1,6.35,2.46,4.43,4.43,0,0,0,1.57.63A1.59,1.59,0,0,0,42,43a1.55,1.55,0,0,0-.75-2,42.08,42.08,0,0,0-5.35-2.53A27.86,27.86,0,0,0,26.05,37"/><path class="cls-1" d="M25.36,19.64c6.53.07,12,.79,17.33,2.76a45.67,45.67,0,0,1,5,2.36,2.44,2.44,0,0,1,1.15,3A2.67,2.67,0,0,1,46.4,29.5a2,2,0,0,1-1.25-.4,31.26,31.26,0,0,0-10.44-3.62,46.81,46.81,0,0,0-14.94-.31c-1.49.22-3,.61-4.44,1a2.51,2.51,0,0,1-2.64-.72,2.41,2.41,0,0,1-.4-2.75,2.44,2.44,0,0,1,1.63-1.39A34.43,34.43,0,0,1,20.51,20c1.92-.17,3.84-.28,4.85-.35"/><path class="cls-1" d="M24.8,28.52a39.87,39.87,0,0,1,15.86,3,38.22,38.22,0,0,1,3.59,1.87A2,2,0,0,1,45,36.37a2.12,2.12,0,0,1-3.1.61,29,29,0,0,0-8.13-3.2,36.5,36.5,0,0,0-9.54-.94,29.56,29.56,0,0,0-7.12,1.08A2.79,2.79,0,0,1,15,34a2,2,0,0,1-1.2-2,1.91,1.91,0,0,1,1.37-1.89,33.56,33.56,0,0,1,4.38-1c2.08-.31,4.19-.43,5.26-.54"/><path class="cls-1" d="M26.05,37a27.86,27.86,0,0,1,9.89,1.55,42.08,42.08,0,0,1,5.35,2.53A1.55,1.55,0,0,1,42,43a1.59,1.59,0,0,1-1.68,1.18,4.43,4.43,0,0,1-1.57-.63,21.58,21.58,0,0,0-6.35-2.46,28.16,28.16,0,0,0-7.2-.7,41.18,41.18,0,0,0-8,1A1.77,1.77,0,0,1,15.28,41a1.7,1.7,0,0,1,1-2.81A42.17,42.17,0,0,1,26.05,37"/></g></g></svg>