<svg xmlns="http://www.w3.org/2000/svg" viewBox="0 0 48.24 47.58"><defs><style>.cls-1{fill:#5006f2;}.cls-2{fill:#ffda00;}</style></defs><g id="Capa_2" data-name="Capa 2"><g id="Capa_2-2" data-name="Capa 2"><path class="cls-1" d="M46.31,47.58A1.92,1.92,0,0,1,44.94,47L29.79,31.67A1.93,1.93,0,0,1,32.53,29L47.69,44.29a1.94,1.94,0,0,1-1.38,3.29"/><path class="cls-2" d="M20.15,35.71a18.67,18.67,0,0,1-14-6.07,1.94,1.94,0,0,1,0-2.73,1.92,1.92,0,0,1,2.72,0,14.86,14.86,0,0,0,11.29,4.92A16.15,16.15,0,0,0,31.4,27.33a12.26,12.26,0,0,0,3.7-8.84c0-7-4.77-14.62-15.19-14.63h0c-7.82,0-11.51,4.3-13.24,7.92a1.92,1.92,0,1,1-3.47-1.66C5,6.34,9.53,0,19.88,0h0c12.48,0,19,9.31,19,18.48a16,16,0,0,1-4.82,11.57,19.84,19.84,0,0,1-14,5.66"/><path class="cls-1" d="M9.81,19.25a.15.15,0,0,1-.11.16L6.52,21.12l-.29,1.29L5.6,25.17l0,.13a.52.52,0,0,1,0,.11v0a.14.14,0,0,1-.13.14c-.06,0-.11,0-.13-.12L4.15,22.58,3.72,21.5a.26.26,0,0,0-.07-.1S.13,20.25.07,20.22h0a.18.18,0,0,1-.07-.1.16.16,0,0,1,.1-.19L3.31,18.3l.06,0,.84-3.63.13-.58a.15.15,0,0,1,0-.06.1.1,0,0,1,0-.07.09.09,0,0,1,.08,0,.15.15,0,0,1,.14.12l1.51,3.89a.15.15,0,0,0,.12.12l1.57.5,1.8.57a.2.2,0,0,1,.08,0,.22.22,0,0,1,.11.1.07.07,0,0,0,0,.05"/></g></g></svg>