<svg xmlns="http://www.w3.org/2000/svg" viewBox="0 0 60.21 62.86"><defs><style>.cls-1{fill:#5006f2;}.cls-2{fill:#ffda00;}</style></defs><g id="Capa_2" data-name="Capa 2"><g id="Capa_2-2" data-name="Capa 2"><path class="cls-1" d="M33.81,4.35a.11.11,0,0,1-.09.12L31.23,5.55l-.3,1-.64,2,0,.09a.14.14,0,0,1,0,.07v0a.11.11,0,0,1-.1.1c-.05,0-.09,0-.1-.1l-.68-2.21-.26-.84a.09.09,0,0,0,0-.08s-2.57-1.08-2.61-1.11h0a.13.13,0,0,1-.05-.07c0-.06,0-.13.09-.14l2.51-1,0,0L29.89.55,30,.12s0,0,0,0a.09.09,0,0,1,0-.06l.06,0c.05,0,.09,0,.1.1l.9,3a.11.11,0,0,0,.08.1l1.14.47,1.32.54.06,0a.13.13,0,0,1,.07.08.08.08,0,0,1,0,0"/><path class="cls-1" d="M30.16,62.86A30.31,30.31,0,0,1,22.81,62,30.09,30.09,0,0,1,14.62,7a29.1,29.1,0,0,1,4.6-2.24,2.35,2.35,0,1,1,1.68,4.4A24.86,24.86,0,0,0,17.05,11,25.38,25.38,0,0,0,43.17,54.52,25.38,25.38,0,0,0,38.26,8.73a2.35,2.35,0,1,1,1.51-4.46,30.09,30.09,0,0,1-9.61,58.59Z"/><path class="cls-2" d="M8.53,25.46c3.84,3.33,7.36,6.41,10.92,9.44a1.61,1.61,0,0,1,.63,1.86c-.34,1.21-.59,2.45-.88,3.67-.77,3.37-1.55,6.73-2.39,10.38l1.5-.86c3.62-2.19,7.25-4.36,10.85-6.58a1.59,1.59,0,0,1,1.94,0c2.52,1.58,5.08,3.09,7.62,4.62,1.49.91,3,1.8,4.65,2.8-.06-.46-.07-.72-.13-1-1-4.24-2-8.5-3-12.73a1.94,1.94,0,0,1,.7-2.31c3.19-2.64,6.3-5.38,9.43-8.09.39-.33.76-.69,1.33-1.22-4.93-.41-9.55-.81-14.17-1.15A1.87,1.87,0,0,1,35.66,23c-1.6-4-3.29-7.88-5-11.82-.14-.34-.34-.66-.61-1.2-1.71,4-3.48,7.77-4.86,11.65-.77,2.16-2,2.75-4.1,2.84-4.08.18-8.15.66-12.6,1"/></g></g></svg>