<svg xmlns="http://www.w3.org/2000/svg" viewBox="0 0 70.96 43.92"><defs><style>.cls-1{fill:#dadada;}</style></defs><g id="Capa_2" data-name="Capa 2"><g id="Capa_2-2" data-name="Capa 2"><path class="cls-1" d="M32.86,43.92c-1.7,0-3.4,0-5-.06-14.82-.4-16-2-16-4.1V23.48a1.93,1.93,0,1,1,3.85,0V38.86c4.92,1.68,31.32,1.59,36.46-.12V23.06a1.93,1.93,0,0,1,3.86,0V39.7c-.11,2.08-1.72,3.14-10.57,3.8-3.69.27-8.14.42-12.56.42"/><path class="cls-1" d="M65.7,26.91A1.93,1.93,0,0,1,63.77,25V15.7a1.93,1.93,0,1,1,3.86,0V25a1.93,1.93,0,0,1-1.93,1.93"/><path class="cls-1" d="M33.8,33.05a4.85,4.85,0,0,1-2-.42L1.57,18.88a2.67,2.67,0,0,1,0-4.87L32.1.4a4.56,4.56,0,0,1,3.69,0L66,13.44a2.69,2.69,0,0,1,.08,4.91L35.85,32.6a4.89,4.89,0,0,1-2.05.45M5.56,16.46,33.42,29.12a1,1,0,0,0,.79,0L62.11,16l-27.85-12a.68.68,0,0,0-.59,0Zm-2.4,1.07h0M64.47,17h0ZM2.37,15.77h0Z"/><path class="cls-1" d="M71,34.27a.13.13,0,0,0,0-.06.14.14,0,0,0-.11-.11l-.07,0-1.88-.77-1.62-.68a.15.15,0,0,1-.12-.13L65.89,28.2a.13.13,0,0,0-.13-.13s-.07,0-.09,0a.13.13,0,0,0,0,.07.25.25,0,0,0,0,.07l-.19.59-1.22,3.8a.09.09,0,0,1-.06,0l-3.57,1.45a.18.18,0,0,0-.12.2.17.17,0,0,0,.06.11h0c.05,0,3.69,1.57,3.69,1.57a.14.14,0,0,1,.07.11l1.31,4.35a.15.15,0,0,0,.29,0v0a.52.52,0,0,0,0-.11l0-.13L67.29,36l3.55-1.53a.16.16,0,0,0,.12-.16"/></g></g></svg>