<svg xmlns="http://www.w3.org/2000/svg" viewBox="0 0 61.36 47.4"><defs><style>.cls-1{fill:#5006f2;}</style></defs><g id="Capa_2" data-name="Capa 2"><g id="Capa_2-2" data-name="Capa 2"><path class="cls-1" d="M35,42.18a.12.12,0,0,1-.1.13L32,43.57l-.36,1.12-.75,2.38,0,.11a.31.31,0,0,1,0,.08v0c0,.08-.07.12-.12.12s-.1,0-.12-.12l-.78-2.59-.3-1a.15.15,0,0,0-.06-.09s-3-1.27-3-1.3h0a.18.18,0,0,1-.06-.09.17.17,0,0,1,.1-.17l2.94-1.19a.05.05,0,0,0,.05,0l1-3.12.16-.5a.11.11,0,0,1,0-.05.09.09,0,0,1,0-.06.11.11,0,0,1,.07,0q.09,0,.12.12l1,3.52a.14.14,0,0,0,.1.11l1.34.56,1.54.63.07,0a.11.11,0,0,1,.08.1.06.06,0,0,1,0,0"/><path class="cls-1" d="M3.91,38.32A1.93,1.93,0,0,1,2.6,35L21,18a1.93,1.93,0,0,1,2.61,2.84l-18.36,17a1.93,1.93,0,0,1-1.31.51"/><path class="cls-1" d="M57.46,39.83A1.93,1.93,0,0,1,56,39.21l-17.57-19a1.93,1.93,0,1,1,2.83-2.62l17.58,19a1.93,1.93,0,0,1-1.42,3.23"/><path class="cls-1" d="M51,44.16h-.19c-4.25,0-8.49-.06-12.74-.07a1.93,1.93,0,0,1,0-3.86h0q6.39,0,12.78.08H51c3.47,0,5.33-1,6.42-3.51a1.07,1.07,0,0,0,.08-.47V8.5a4.19,4.19,0,0,0-.44-1.93L30.68,26.9,4.33,6.57a6.32,6.32,0,0,0-.47,2.49c0,3.23,0,6.46,0,9.7,0,5.28.06,10.75,0,16.14a5.35,5.35,0,0,0,1.35,3.94,5.37,5.37,0,0,0,3.92,1.4H23.31a1.93,1.93,0,0,1,0,3.86H9.13a9.16,9.16,0,0,1-6.67-2.55A9.17,9.17,0,0,1,0,34.84C.08,29.49.05,24,0,18.78Q0,13.9,0,9.05A9.5,9.5,0,0,1,1.59,3.59a3,3,0,0,1,2-1.24A3.12,3.12,0,0,1,6,3L30.68,22,55.4,3a3.24,3.24,0,0,1,2.48-.56,3.14,3.14,0,0,1,2,1.37,9.88,9.88,0,0,1,.54.94,7.85,7.85,0,0,1,.92,3.77V36.33a4.89,4.89,0,0,1-.41,2c-1.71,3.91-5,5.81-10,5.81"/><path class="cls-1" d="M30.68,26.91,2.14,4.88,2,3l.68-.69A10.09,10.09,0,0,1,9.79,0c4.9,0,9.81,0,14.72.06C33.6.12,43,.18,52.22,0a10.34,10.34,0,0,1,5.5,1.62A2.52,2.52,0,0,1,59,3.7a2.55,2.55,0,0,1-1,2.17ZM7.39,4.06,30.68,22,53.93,4.11a4.08,4.08,0,0,0-1.65-.22C43,4,33.6,4,24.49,3.92c-5.12,0-10.24-.08-15.36-.06a7.35,7.35,0,0,0-1.74.2M55.72,5h0m-.11-2.14h0Z"/></g></g></svg>