<svg xmlns="http://www.w3.org/2000/svg" viewBox="0 0 61.36 47.4"><defs><style>.cls-1{fill:#dadada;}</style></defs><g id="Capa_2" data-name="Capa 2"><g id="Capa_2-2" data-name="Capa 2"><path class="cls-1" d="M35,42.18a.12.12,0,0,1-.1.13L32,43.57l-.36,1.11-.75,2.38,0,.12a.31.31,0,0,1,0,.08v0c0,.08-.07.12-.12.12s-.1,0-.12-.12l-.78-2.6-.3-1a.15.15,0,0,0-.06-.09s-3-1.27-3-1.3h0a.17.17,0,0,1-.06-.1.16.16,0,0,1,.1-.16l2.94-1.19s0,0,.05,0l1-3.12.16-.5a.11.11,0,0,1,0-.05.09.09,0,0,1,0-.06.11.11,0,0,1,.07,0c.06,0,.1,0,.12.11l1,3.53a.14.14,0,0,0,.1.11l1.34.56,1.54.63.07,0a.11.11,0,0,1,.08.09.11.11,0,0,1,0,0"/><path class="cls-1" d="M3.91,38.32a1.91,1.91,0,0,1-1.42-.63A1.93,1.93,0,0,1,2.6,35L21,18a1.92,1.92,0,0,1,2.61,2.83L5.22,37.8a1.9,1.9,0,0,1-1.31.52"/><path class="cls-1" d="M57.46,39.83A1.93,1.93,0,0,1,56,39.21l-17.57-19a1.92,1.92,0,0,1,.1-2.72,1.94,1.94,0,0,1,2.73.11l17.58,19a1.93,1.93,0,0,1-1.42,3.24"/><path class="cls-1" d="M51,44.16h-.19q-6.37-.07-12.74-.07a1.93,1.93,0,0,1,0-3.86h0q6.39,0,12.78.07H51c3.47,0,5.33-1,6.42-3.52a1.05,1.05,0,0,0,.08-.46V8.5a4.19,4.19,0,0,0-.44-1.93L30.68,26.9,4.33,6.57a6.32,6.32,0,0,0-.47,2.49c0,3.22,0,6.46,0,9.69,0,5.29.06,10.76,0,16.15a5.35,5.35,0,0,0,1.35,3.94,5.37,5.37,0,0,0,3.92,1.4H23.31a1.93,1.93,0,0,1,0,3.86H9.13a9.15,9.15,0,0,1-6.67-2.54A9.17,9.17,0,0,1,0,34.84C.08,29.49.05,24,0,18.78Q0,13.9,0,9A9.49,9.49,0,0,1,1.59,3.59a3,3,0,0,1,2-1.24A3.12,3.12,0,0,1,6,3L30.68,22,55.4,3a3.24,3.24,0,0,1,2.48-.56,3.14,3.14,0,0,1,2,1.37q.3.46.54.93a7.89,7.89,0,0,1,.92,3.78V36.33a4.89,4.89,0,0,1-.41,2c-1.71,3.91-5,5.81-10,5.81"/><path class="cls-1" d="M30.68,26.9,2.14,4.88,2,3l.68-.7A10,10,0,0,1,9.79,0c4.9,0,9.81,0,14.72.06C33.6.12,43,.18,52.22,0a10.25,10.25,0,0,1,5.5,1.62A2.51,2.51,0,0,1,59,3.7a2.55,2.55,0,0,1-1,2.17ZM7.39,4.06,30.68,22,53.93,4.11a4.26,4.26,0,0,0-1.65-.23C43,4,33.6,4,24.49,3.92c-5.12,0-10.24-.09-15.36-.06a6.87,6.87,0,0,0-1.74.2m48.33.88h0m-.11-2.13h0Z"/></g></g></svg>