<svg xmlns="http://www.w3.org/2000/svg" viewBox="0 0 64.92 64.92"><defs><style>.cls-1{fill:#fff;}</style></defs><g id="Capa_2" data-name="Capa 2"><g id="Capa_2-2" data-name="Capa 2"><path class="cls-1" d="M62.57,48.42a.16.16,0,0,1-.12.16L58.94,50.1l-.42,1.34-.9,2.86,0,.13a.26.26,0,0,1,0,.11v0a.15.15,0,0,1-.15.14c-.06,0-.11,0-.13-.14l-1-3.12L56,50.26a.24.24,0,0,0-.06-.11s-3.61-1.51-3.67-1.55h0a.17.17,0,0,1-.06-.11.16.16,0,0,1,.12-.19l3.53-1.45a.07.07,0,0,0,0,0l1.2-3.76.19-.59s0,0,0-.07a.18.18,0,0,1,.05-.07l.09,0a.16.16,0,0,1,.14.14l1.26,4.22a.15.15,0,0,0,.11.14l1.61.66,1.85.76.08,0a.15.15,0,0,1,.11.11.13.13,0,0,1,0,.06"/><path class="cls-1" d="M32.52,64.92h-.2C13.87,64.83,0,50.87,0,32.45A32.4,32.4,0,0,1,9.36,9.29,32.37,32.37,0,0,1,32.44,0h.07A32.43,32.43,0,0,1,55.67,9.39a32.36,32.36,0,0,1,9.25,23.17,33.85,33.85,0,0,1-1.05,8.37,2.35,2.35,0,1,1-4.56-1.17,29.42,29.42,0,0,0,.9-7.21,27.7,27.7,0,0,0-7.88-19.84,27.79,27.79,0,0,0-19.83-8h-.06a27.68,27.68,0,0,0-19.75,7.91,27.77,27.77,0,0,0-8,19.83c0,15.75,11.86,27.68,27.63,27.76a27.82,27.82,0,0,0,19-7.1,2.36,2.36,0,0,1,3.18,3.48A32.5,32.5,0,0,1,32.52,64.92Z"/><path class="cls-1" d="M22.28,22.47a3.55,3.55,0,0,0-2.83,2.81,3.51,3.51,0,0,0,3.47,4.14,3.43,3.43,0,0,0,3.47-3.5,3.49,3.49,0,0,0-4.11-3.45m19.8-.06a3.48,3.48,0,0,0-3.55,3.44,3.42,3.42,0,0,0,3.39,3.57A3.5,3.5,0,0,0,45.52,26a3.59,3.59,0,0,0-3.44-3.6m6.08,15.12-.09,0-.49-.15a1.24,1.24,0,0,0-1.46.57c-3.13,5-8,6.54-13.66,6.55s-10.59-1.58-13.68-6.54a1.28,1.28,0,0,0-1.51-.56l-.48.17a1.27,1.27,0,0,0-.72,1.78c3.06,6,10,9.59,17.69,9.15,6.63-.37,13-4.34,15.13-9.21a1.29,1.29,0,0,0-.73-1.72"/></g></g></svg>