<svg xmlns="http://www.w3.org/2000/svg" viewBox="0 0 60.19 60.18"><defs><style>.cls-1{fill:#fff;}</style></defs><g id="Capa_2" data-name="Capa 2"><g id="Capa_2-2" data-name="Capa 2"><path class="cls-1" d="M59,43.32a.11.11,0,0,1-.08.11l-2.5,1.08-.3,1-.65,2,0,.1a.25.25,0,0,1,0,.07v0a.1.1,0,0,1-.1.09.09.09,0,0,1-.1-.09l-.67-2.22-.25-.84a.12.12,0,0,0-.05-.08s-2.56-1.08-2.6-1.11h0a.14.14,0,0,1,0-.08.12.12,0,0,1,.09-.14l2.51-1,0,0,.86-2.67.13-.43v0a.07.07,0,0,1,0-.05.07.07,0,0,1,.06,0,.1.1,0,0,1,.1.09l.89,3a.11.11,0,0,0,.08.1l1.14.47,1.32.55,0,0a.13.13,0,0,1,.08.08v0"/><path class="cls-1" d="M30.1,60.18A30.09,30.09,0,1,1,60.19,30.1a29.29,29.29,0,0,1-.44,5.09,2.36,2.36,0,1,1-4.64-.83,23.69,23.69,0,0,0,.37-4.26,25.4,25.4,0,1,0-9,19.35,2.36,2.36,0,0,1,3,3.59A30,30,0,0,1,30.1,60.18Z"/><path class="cls-1" d="M11.09,29.26c.76-1.57,2-2,3.73-2,7.76.07,15.52,0,23.28,0h1.28c-.27-.31-.43-.53-.62-.72-2.06-2.08-4.14-4.14-6.19-6.23a2.73,2.73,0,0,1-.37-3.48,2.7,2.7,0,0,1,3.23-1.11,3.84,3.84,0,0,1,1.3.88Q42.45,22.26,48.11,28a2.73,2.73,0,0,1,0,4.22Q42.4,37.9,36.65,43.58a8.19,8.19,0,0,1-1.77,1.05h-.6c-2.94-1.14-3.37-3.22-1.13-5.46l5.57-5.57c.2-.19.36-.42.64-.75H38.1c-7.76,0-15.52,0-23.28,0-1.71,0-3-.46-3.73-2Z"/></g></g></svg>