<svg xmlns="http://www.w3.org/2000/svg" viewBox="0 0 60.19 60.18"><defs><style>.cls-1{fill:#fff;}</style></defs><g id="Capa_2" data-name="Capa 2"><g id="Capa_2-2" data-name="Capa 2"><path class="cls-1" d="M56.18,43.84a.11.11,0,0,1-.08.11L53.6,45l-.3.95-.65,2,0,.1a.25.25,0,0,1,0,.07v0a.1.1,0,0,1-.1.09.09.09,0,0,1-.1-.09L51.73,46l-.25-.84a.16.16,0,0,0,0-.08S48.87,44,48.83,44h0a.14.14,0,0,1,0-.08.12.12,0,0,1,.09-.14l2.51-1,0,0L52.28,40l.13-.43s0,0,0,0a.1.1,0,0,1,0,0,.09.09,0,0,1,.06,0,.11.11,0,0,1,.1.1l.89,3a.11.11,0,0,0,.08.1l1.14.47,1.32.55.05,0a.13.13,0,0,1,.08.08v0"/><path class="cls-1" d="M30.1,60.18A30.09,30.09,0,1,1,60.19,30.1a28.35,28.35,0,0,1-.44,5.09,2.36,2.36,0,1,1-4.64-.82,23.89,23.89,0,0,0,.37-4.27,25.4,25.4,0,1,0-9,19.35,2.36,2.36,0,0,1,3,3.59A30.08,30.08,0,0,1,30.1,60.18Z"/><path class="cls-1" d="M29.26,49.1c-1.57-.76-2-2-2-3.73.06-7.76,0-15.52,0-23.28V20.81c-.32.27-.53.43-.72.62-2.08,2.06-4.14,4.14-6.24,6.19a2.77,2.77,0,0,1-4.59-2.86,4.14,4.14,0,0,1,.88-1.31Q22.26,17.75,28,12.08a2.74,2.74,0,0,1,4.22,0Q37.9,17.8,43.58,23.54a8,8,0,0,1,1.05,1.77v.6c-1.14,2.94-3.22,3.38-5.45,1.13L33.6,21.46c-.19-.19-.41-.35-.75-.63v1.26c0,7.76,0,15.52,0,23.28,0,1.71-.45,3-2,3.73Z"/></g></g></svg>