<svg xmlns="http://www.w3.org/2000/svg" viewBox="0 0 60.19 60.18"><defs><style>.cls-1{fill:#fff;}</style></defs><g id="Capa_2" data-name="Capa 2"><g id="Capa_2-2" data-name="Capa 2"><path class="cls-1" d="M57.83,43.32a.11.11,0,0,1-.08.11l-2.5,1.08-.3,1-.65,2,0,.1a.25.25,0,0,1,0,.07v0a.1.1,0,0,1-.1.09.09.09,0,0,1-.1-.09l-.67-2.22-.26-.84a.09.09,0,0,0,0-.08s-2.56-1.08-2.6-1.11h0a.14.14,0,0,1,0-.08.12.12,0,0,1,.09-.14l2.51-1,0,0,.86-2.67.13-.43v0a.07.07,0,0,1,0-.05.07.07,0,0,1,.06,0,.1.1,0,0,1,.1.09l.89,3a.11.11,0,0,0,.08.1l1.14.47,1.31.55.06,0a.13.13,0,0,1,.08.08v0"/><path class="cls-1" d="M24.82,36.87l9-9,10-10a2.79,2.79,0,0,1,3.54-.62,2.48,2.48,0,0,1,1.39,2.85,4,4,0,0,1-1,1.85Q37.74,32,27.63,42.05a3.67,3.67,0,0,1-5.63,0q-4.83-4.75-9.58-9.58c-1.37-1.38-1.45-3.1-.27-4.27s2.88-1.09,4.27.28c2.77,2.73,5.5,5.5,8.4,8.39"/><path class="cls-1" d="M30.1,60.18A30.09,30.09,0,1,1,60.19,30.1a29.29,29.29,0,0,1-.44,5.09,2.36,2.36,0,1,1-4.64-.83,23.69,23.69,0,0,0,.37-4.26,25.4,25.4,0,1,0-9,19.35,2.36,2.36,0,0,1,3,3.59A30,30,0,0,1,30.1,60.18Z"/></g></g></svg>