<svg xmlns="http://www.w3.org/2000/svg" viewBox="0 0 32.11 58.87"><defs><style>.cls-1{fill:#5006f2;}</style></defs><g id="Capa_2" data-name="Capa 2"><g id="Capa_2-2" data-name="Capa 2"><path class="cls-1" d="M20.39,53.65a.13.13,0,0,1-.1.14l-2.92,1.26L17,56.16l-.76,2.38,0,.11a.32.32,0,0,1,0,.09v0a.12.12,0,0,1-.12.11.11.11,0,0,1-.11-.11l-.79-2.6-.3-1a.11.11,0,0,0-.05-.09s-3-1.26-3.05-1.3h0a.11.11,0,0,1,0-.09.13.13,0,0,1,.1-.16l2.94-1.2.05,0,1-3.13.16-.5a.43.43,0,0,0,0,0,.09.09,0,0,1,0-.06.13.13,0,0,1,.08,0c.05,0,.1,0,.11.12l1,3.52a.15.15,0,0,0,.09.11l1.34.56,1.54.64a.14.14,0,0,1,.07,0,.15.15,0,0,1,.09.1v0"/><path class="cls-1" d="M10.8,7.29a.94.94,0,1,1-.93-.94.93.93,0,0,1,.93.94"/><path class="cls-1" d="M21,8.22h-7.9a.47.47,0,0,1-.47-.46V7.18a.47.47,0,0,1,.47-.46H21a.46.46,0,0,1,.46.46v.58a.46.46,0,0,1-.46.46"/><path class="cls-1" d="M6.54,55.61A2.1,2.1,0,0,1,6,55.53c-5.2-1.59-6-4.84-6-6.63V6.71A6.63,6.63,0,0,1,6.54,0h19a6.63,6.63,0,0,1,6.53,6.71V48.9c0,1.88-.78,5.24-6,6.65a1.9,1.9,0,0,1-1-3.68c3.21-.86,3.21-2.34,3.21-3V6.71a2.81,2.81,0,0,0-2.72-2.9h-19a2.82,2.82,0,0,0-2.73,2.9V48.9c0,1.31,1.1,2.32,3.28,3a1.9,1.9,0,0,1-.55,3.72"/></g></g></svg>