<svg xmlns="http://www.w3.org/2000/svg" viewBox="0 0 60.21 62.85"><defs><style>.cls-1{fill:#dadada;}</style></defs><g id="Capa_2" data-name="Capa 2"><g id="Capa_2-2" data-name="Capa 2"><path class="cls-1" d="M33.81,4.35a.11.11,0,0,1-.09.12L31.23,5.55l-.3,1-.64,2,0,.1a.19.19,0,0,1,0,.07v0a.11.11,0,0,1-.1.1c-.05,0-.09,0-.1-.1l-.68-2.21-.26-.85a.08.08,0,0,0,0-.07s-2.57-1.08-2.61-1.11h0a.09.09,0,0,1,0-.08.11.11,0,0,1,.08-.13l2.51-1,0,0L29.89.54,30,.12v0a.1.1,0,0,1,0,0l.06,0c.05,0,.09,0,.1.1l.9,3a.11.11,0,0,0,.08.1l1.14.47,1.32.54.06,0a.13.13,0,0,1,.07.08.08.08,0,0,1,0,0"/><path class="cls-1" d="M30.16,62.85A30.1,30.1,0,0,1,14.62,7a29.1,29.1,0,0,1,4.6-2.24,2.35,2.35,0,1,1,1.68,4.4A24.43,24.43,0,0,0,17.05,11,25.38,25.38,0,0,0,43.17,54.52,25.38,25.38,0,0,0,38.26,8.73a2.35,2.35,0,0,1,1.51-4.46,30.09,30.09,0,0,1-9.61,58.58Z"/><path class="cls-1" d="M8.52,25.46c3.84,3.33,7.36,6.41,10.92,9.44a1.61,1.61,0,0,1,.63,1.86c-.34,1.21-.59,2.45-.87,3.67-.78,3.36-1.56,6.72-2.4,10.38L18.3,50c3.62-2.19,7.25-4.36,10.85-6.58a1.59,1.59,0,0,1,1.94,0c2.52,1.58,5.08,3.09,7.62,4.62l4.65,2.8c-.06-.46-.07-.72-.13-1-1-4.25-2-8.5-3-12.73a1.94,1.94,0,0,1,.7-2.31c3.19-2.64,6.3-5.38,9.43-8.09.39-.33.76-.69,1.33-1.22-4.93-.41-9.55-.81-14.17-1.15A1.88,1.88,0,0,1,35.65,23c-1.6-4-3.29-7.88-5-11.82-.14-.34-.33-.66-.61-1.2-1.71,4-3.48,7.77-4.86,11.65-.77,2.16-2,2.75-4.1,2.84-4.08.18-8.15.66-12.6,1"/></g></g></svg>