<svg xmlns="http://www.w3.org/2000/svg" viewBox="0 0 47.39 71.59"><defs><style>.cls-1{fill:#ffda00;}</style></defs><g id="Capa_2" data-name="Capa 2"><g id="Capa_2-2" data-name="Capa 2"><path class="cls-1" d="M27.4,10.47a.1.1,0,0,1-.08.11l-2.49,1.09-.3.95-.64,2,0,.1a.25.25,0,0,1,0,.07v0c0,.07-.06.1-.11.1s-.08,0-.09-.1L23,12.62l-.26-.84a.14.14,0,0,0-.05-.08s-2.56-1.07-2.6-1.1h0a.14.14,0,0,1-.05-.08c0-.06,0-.13.09-.14l2.5-1s0,0,0,0l.86-2.67.13-.43s0,0,0,0a.1.1,0,0,1,0-.05s0,0,.06,0a.1.1,0,0,1,.1.09l.89,3s0,.09.08.09L26,9.79l1.32.54.05,0a.13.13,0,0,1,.08.08v0"/><path class="cls-1" d="M23.73,64.29h-.14a3.35,3.35,0,0,1-2.4-1.18l-1.66-2c-1.7-2-3.32-3.91-4.88-5.92-4.59-5.86-9.7-13-12.77-21.72C-1.93,22.76.06,13.6,7.77,6.3a23.15,23.15,0,0,1,25.82-4c9,4.35,13.77,12,13.8,22a34.2,34.2,0,0,1-3.46,14.4c-3.75,8.34-9.26,16-17.86,24.65h0A3.28,3.28,0,0,1,23.73,64.29Zm-1-4.29Zm1-55.29A18.42,18.42,0,0,0,11,9.73C4.69,15.71,3.15,23,6.32,31.94,9.16,40,14,46.77,18.36,52.33c1.51,1.93,3.09,3.79,4.77,5.77l.67.8c7.57-7.83,12.48-14.71,15.83-22.17a29.94,29.94,0,0,0,3-12.45C42.65,15.92,39,10.1,31.54,6.5A18,18,0,0,0,23.67,4.71Z"/><path class="cls-1" d="M23.67,35.18h-.1A13.62,13.62,0,0,1,10,21.28,13.71,13.71,0,0,1,15,10.7a2.36,2.36,0,0,1,3,3.65,9.1,9.1,0,0,0,5.65,16.11h.06a9.08,9.08,0,0,0,5-16.66,2.36,2.36,0,1,1,2.56-4,13.69,13.69,0,0,1,6.23,11.69A13.63,13.63,0,0,1,23.67,35.18Z"/><path class="cls-1" d="M34.75,71.59H12.66a2.36,2.36,0,0,1,0-4.71H34.75a2.36,2.36,0,1,1,0,4.71Z"/></g></g></svg>