<svg xmlns="http://www.w3.org/2000/svg" viewBox="0 0 60.35 60.36"><defs><style>.cls-1{fill:#5006f2;}</style></defs><g id="Capa_2" data-name="Capa 2"><g id="Capa_2-2" data-name="Capa 2"><path class="cls-1" d="M6.76,0H53.68l.16,0a8.17,8.17,0,0,1,1,.16,7.13,7.13,0,0,1,5.52,7.21v46a6.2,6.2,0,0,1-.73,2.92,7,7,0,0,1-6.54,4q-22.89,0-45.76,0a7.66,7.66,0,0,1-1.51-.15A7.19,7.19,0,0,1,.14,54.36c0-.24-.09-.48-.14-.73v-47C.05,6.4.1,6.18.14,6a7.19,7.19,0,0,1,6-5.87L6.76,0M26,25.87c-.29,0-.57,0-.84,0a12.17,12.17,0,0,0-3.12.43,12.25,12.25,0,0,0,2.12,24,11.71,11.71,0,0,0,4-.31,12.23,12.23,0,0,0,8.73-8.08,12.5,12.5,0,0,0,.62-4c0-5.35,0-10.7,0-16v-.28a11.25,11.25,0,0,0,4.37,3.73,10.55,10.55,0,0,0,5.61,1c.05-.51,0-6.54,0-6.71a10.65,10.65,0,0,1-6.65-3A10.74,10.74,0,0,1,37.54,10H31.77v.27q0,10.5-.05,21c0,2.25,0,4.51,0,6.76a5.86,5.86,0,0,1-.45,2.33,6.6,6.6,0,0,1-7.46,3.79A6.23,6.23,0,0,1,19,37.11a6,6,0,0,1,3.21-4.53,5.61,5.61,0,0,1,3.59-.68H26Z"/></g></g></svg>