<svg xmlns="http://www.w3.org/2000/svg" viewBox="0 0 62.45 62.46"><defs><style>.cls-1{fill:#5006f2;}</style></defs><g id="Capa_2" data-name="Capa 2"><g id="Capa_2-2" data-name="Capa 2"><path class="cls-1" d="M62.45,31.31V54.06a8.39,8.39,0,0,1-8.4,8.4H8.4A8.4,8.4,0,0,1,0,54.06Q0,31.23,0,8.4A8.4,8.4,0,0,1,8.4,0H54.05a8.39,8.39,0,0,1,8.4,8.4V31.31M48.69,18.2c0-1.94-.57-2.42-2.06-1.86q-9.06,3.39-18.09,6.84L16.66,27.7c-1.51.58-3,1.15-4.5,1.78a1.36,1.36,0,0,0-1,1.28c0,.65.62.86,1.13,1l8.11,2.8A1.61,1.61,0,0,0,22,34.43c2.18-1.42,4.39-2.79,6.57-4.19L41.32,22c.28-.18.67-.57.94-.23s-.28.55-.51.77q-6,5.52-12,11c-1,1-2,1.93-3.07,2.89-.42.4-.42.74.05,1.09l.74.57L38,45.82a8.65,8.65,0,0,0,2.75,1.73c1.28.36,1.79.11,2.1-1.18.91-3.76,1.83-7.51,2.7-11.28.5-2.2.92-4.42,1.36-6.63.38-1.91.78-3.82,1.12-5.73.28-1.61.49-3.23.68-4.53"/></g></g></svg>