<svg xmlns="http://www.w3.org/2000/svg" viewBox="0 0 51.97 46.92"><defs><style>.cls-1{fill:#5006f2;}</style></defs><g id="Capa_2" data-name="Capa 2"><g id="Capa_2-2" data-name="Capa 2"><path class="cls-1" d="M29.36,42.85a.1.1,0,0,1-.07.11l-2.28,1-.28.87-.59,1.85,0,.09s0,0,0,.07h0c0,.07-.05.09-.09.09s-.08,0-.09-.09l-.61-2L25.06,44A.08.08,0,0,0,25,44s-2.34-1-2.38-1h0a.16.16,0,0,1,0-.07c0-.05,0-.12.08-.13l2.3-.93,0,0,.79-2.44.12-.39s0,0,0,0l0,0a.07.07,0,0,1,.06,0,.09.09,0,0,1,.09.08l.81,2.75a.11.11,0,0,0,.07.09l1.05.43,1.2.5.05,0a.1.1,0,0,1,.07.07v0"/><path class="cls-1" d="M46.21,44.38H33.13a1.93,1.93,0,0,1,0-3.86H46.21a1.89,1.89,0,0,0,1.62-2.88L27.6,4.76a1.89,1.89,0,0,0-3.22,0L4.15,37.64a1.89,1.89,0,0,0,1.61,2.88H19.28a1.93,1.93,0,0,1,0,3.86H5.76a5.75,5.75,0,0,1-4.9-8.76L21.09,2.74A5.72,5.72,0,0,1,26,0h0a5.72,5.72,0,0,1,4.9,2.74L51.11,35.62a5.75,5.75,0,0,1-4.9,8.76"/><path class="cls-1" d="M26,29.79a1.93,1.93,0,0,1-1.92-1.93V12.53a1.93,1.93,0,1,1,3.85,0V27.86A1.93,1.93,0,0,1,26,29.79"/><path class="cls-1" d="M28.61,33.58A2.63,2.63,0,1,0,26,36.22a2.63,2.63,0,0,0,2.63-2.64"/></g></g></svg>