<svg xmlns="http://www.w3.org/2000/svg" viewBox="0 0 32.11 58.87"><defs><style>.cls-1{fill:#dadada;}</style></defs><g id="Capa_2" data-name="Capa 2"><g id="Capa_2-2" data-name="Capa 2"><path class="cls-1" d="M20.39,53.65a.12.12,0,0,1-.1.13L17.37,55,17,56.16l-.76,2.38,0,.11s0,.05,0,.08v0a.13.13,0,0,1-.12.12s-.1,0-.11-.12l-.79-2.59-.3-1a.11.11,0,0,0-.05-.09l-3.05-1.3h0a.12.12,0,0,1,0-.1.14.14,0,0,1,.1-.16l2.94-1.19.05,0,1-3.12.16-.5a.43.43,0,0,0,0,0,.09.09,0,0,1,0-.06.13.13,0,0,1,.08,0c.05,0,.1,0,.11.12l1,3.52a.15.15,0,0,0,.09.11l1.34.56,1.54.63.07,0a.12.12,0,0,1,.09.09v0"/><path class="cls-1" d="M10.8,7.28a.94.94,0,1,1-.93-.93.94.94,0,0,1,.93.93"/><path class="cls-1" d="M21,8.22h-7.9a.47.47,0,0,1-.47-.46V7.18a.46.46,0,0,1,.47-.46H21a.45.45,0,0,1,.46.46v.58a.46.46,0,0,1-.46.46"/><path class="cls-1" d="M6.54,55.61A1.77,1.77,0,0,1,6,55.52c-5.2-1.59-6-4.83-6-6.63V6.71A6.63,6.63,0,0,1,6.54,0h19a6.63,6.63,0,0,1,6.53,6.71V48.89c0,1.89-.78,5.25-6,6.65a1.9,1.9,0,0,1-1-3.67c3.21-.87,3.21-2.34,3.21-3V6.71A2.82,2.82,0,0,0,25.58,3.8h-19A2.83,2.83,0,0,0,3.81,6.71V48.89c0,1.32,1.1,2.33,3.28,3a1.9,1.9,0,0,1-.55,3.72"/></g></g></svg>