<svg xmlns="http://www.w3.org/2000/svg" viewBox="0 0 64.98 63.06"><defs><style>.cls-1{fill:#fff;}</style></defs><g id="Capa_2" data-name="Capa 2"><g id="Capa_2-2" data-name="Capa 2"><path class="cls-1" d="M35.77,29.8a.12.12,0,0,1-.09.12l-2.62,1.13-.32,1-.68,2.13,0,.11a.25.25,0,0,1,0,.07v0a.11.11,0,0,1-.11.1s-.09,0-.1-.1L31.1,32l-.27-.88a.12.12,0,0,0,0-.08s-2.69-1.14-2.73-1.17h0a.14.14,0,0,1-.05-.08.13.13,0,0,1,.09-.15l2.64-1.07,0,0,.9-2.8.14-.45a.43.43,0,0,0,0-.05.1.1,0,0,1,0-.05.08.08,0,0,1,.07,0,.11.11,0,0,1,.1.1L33,28.48a.14.14,0,0,0,.08.1l1.2.5,1.38.57a.1.1,0,0,1,.06,0,.09.09,0,0,1,.08.09s0,0,0,0"/><path class="cls-1" d="M40.89,31.83a2.36,2.36,0,1,1,0-4.71h4.65q5.09,0,10.17,0A3.52,3.52,0,0,1,53.21,24c-1-5.23-2-10.52-3-15.5-.57-2.82-1.65-3.77-4.3-3.77q-13.47,0-26.94,0c-2.59,0-3.76,1-4.31,3.8-.33,1.73-.68,3.46-1,5.19-.68,3.43-1.36,6.86-2,10.3A3.51,3.51,0,0,1,9.2,27.07h3.16c3.4,0,6.56,0,10.76,0a2.36,2.36,0,1,1,0,4.71c-4.21,0-7.37,0-10.78,0-2.09,0-4.28,0-6.86,0H5.24a4.47,4.47,0,0,1-3.38-1c-.22-.21-2.32-2.28-1.77-4.53a5.44,5.44,0,0,1,3.56-3.56,10.37,10.37,0,0,1,3.51-.22C7.77,19.23,8.41,16,9.05,12.8l1-5.19C11.31,1.34,15.61,0,19,0Q32.48,0,46,0c4.9,0,7.91,2.54,8.91,7.56.94,4.79,1.94,9.86,2.87,14.9.84,0,1.65,0,2.43,0,2.91.1,4.84,2,4.82,4.67s-2,4.58-4.91,4.6c-4.84,0-9.69.05-14.52.05H40.89ZM5.12,27.36h0Z"/><path class="cls-1" d="M16.16,63.06a14.92,14.92,0,0,1-2.1-.14A15.26,15.26,0,0,1,1,47.77,15.09,15.09,0,0,1,14,32.64,15.14,15.14,0,0,1,30.81,43.19l0,.05h.5a16.71,16.71,0,0,0,2.83,0,12.92,12.92,0,0,0,.56-1.4l.19-.51c2.5-6.63,10.22-10.31,17.58-8.36a15.31,15.31,0,1,1-18,20.65c-1.11-.09-2.89-.12-4.05-.08A15.33,15.33,0,0,1,16.16,63.06Zm.18-25.9a11.3,11.3,0,0,0-1.63.13,10.6,10.6,0,0,0,0,21,10.66,10.66,0,0,0,11.71-7.48c.59-2,2.74-2,5.22-2,4.9,0,6.37.44,6.89,2.12A10.59,10.59,0,1,0,51.29,37.49c-5-1.33-10.31,1.08-12,5.47l-.19.49c-1.48,4-2.75,4.72-8,4.5h-.22c-2.52,0-3.9-1-4.62-3.41A10.4,10.4,0,0,0,16.34,37.16Zm14.56,15Zm-2.25-.68h0Z"/></g></g></svg>