<svg xmlns="http://www.w3.org/2000/svg" viewBox="0 0 60.03 60.01"><defs><style>.cls-1{fill:#ffda00;}</style></defs><g id="Capa_2" data-name="Capa 2"><g id="Capa_2-2" data-name="Capa 2"><path class="cls-1" d="M54.87,60H5.16a1.39,1.39,0,0,0-.26-.1,6.11,6.11,0,0,1-3.53-2.13A7.27,7.27,0,0,1,0,54.86V5.16A1.86,1.86,0,0,0,.1,5,6,6,0,0,1,6.19,0H53.84a6.76,6.76,0,0,1,1.62.18A6.05,6.05,0,0,1,60,6.24V53.77c0,.17,0,.35,0,.52A6,6,0,0,1,58,58.49,7,7,0,0,1,54.87,60M51,51c0-.17,0-.29,0-.4,0-5.55,0-11.1,0-16.64a10.17,10.17,0,0,0-3.76-8c-3.21-2.71-7.73-3.61-11.73-.8A29.79,29.79,0,0,0,33,27.32V24.07h-9V51h9V35.72a11.45,11.45,0,0,1,0-1.17,4.53,4.53,0,0,1,5.64-3.74A4.57,4.57,0,0,1,42,35.45c0,4.94,0,9.89,0,14.83V51ZM9.05,51H18V24H9.05ZM18.89,13.5a5.4,5.4,0,1,0-5.4,5.39,5.41,5.41,0,0,0,5.4-5.39"/></g></g></svg>