<svg xmlns="http://www.w3.org/2000/svg" viewBox="0 0 81.01 59.5"><defs><style>.cls-1{fill:#5006f2;}.cls-2{fill:#ffda00;}</style></defs><g id="Capa_2" data-name="Capa 2"><g id="Capa_2-2" data-name="Capa 2"><path class="cls-1" d="M81,37.1a.11.11,0,0,1-.08.11l-2.43,1-.29.92-.63,2,0,.1a.25.25,0,0,1,0,.07v0a.1.1,0,0,1-.1.09c-.05,0-.08,0-.1-.09l-.65-2.16-.25-.82a.12.12,0,0,0,0-.08l-2.53-1.07h0a.22.22,0,0,1,0-.08A.14.14,0,0,1,73.9,37l2.44-1,0,0,.83-2.59.14-.42v0a.1.1,0,0,1,0,0,.07.07,0,0,1,.06,0,.11.11,0,0,1,.1.09l.86,2.93a.11.11,0,0,0,.07.09l1.12.46,1.28.53.05,0a.09.09,0,0,1,.07.08.06.06,0,0,1,0,0"/><path class="cls-1" d="M43.18,59.5a2.63,2.63,0,0,1-1.25-.31,2.73,2.73,0,0,1-1.41-2.42V45.11c0-11.76,0-22.87.05-34.19A11.1,11.1,0,0,1,51.56.06C56.69,0,61.89,0,66.93,0h8a4.73,4.73,0,0,1,3.51,1.28A4.86,4.86,0,0,1,79.76,4.9q0,12.41,0,24.85a2.36,2.36,0,1,1-4.72,0q0-12.43,0-24.87V4.72H75c-2.69,0-5.37,0-8.06,0-5,0-10.2,0-15.3,0A6.36,6.36,0,0,0,45.28,11c-.08,11.3-.07,22.4-.05,34.15v7.59c.21-.12.42-.24.65-.35,3.25-1.57,6.68-1.63,9.64-1.56,4.06.1,8.21.08,12.22.06,2.35,0,4.69,0,7,0h.27V45.5a2.36,2.36,0,0,1,4.72,0v5.17a4.85,4.85,0,0,1-1.31,3.6,4.92,4.92,0,0,1-3.71,1.28c-2.32,0-4.65,0-7,0-4,0-8.22,0-12.35-.06-3.08-.08-5.4.08-7.48,1.08a8.68,8.68,0,0,0-1.45,1.06,17.75,17.75,0,0,1-1.87,1.44A2.62,2.62,0,0,1,43.18,59.5Zm-1.13-4.38h0Z"/><path class="cls-2" d="M36.6,59.5a2.68,2.68,0,0,1-1.44-.42,19.07,19.07,0,0,1-1.88-1.44,8,8,0,0,0-1.43-1c-2.1-1-4.52-1.17-7.49-1.09-4,.09-8.08.08-12,.06-2.44,0-4.88,0-7.33,0A5,5,0,0,1,1.3,54.26,4.88,4.88,0,0,1,0,50.67H0Q0,27.78,0,4.88A4.89,4.89,0,0,1,1.28,1.29,4.76,4.76,0,0,1,4.79,0h8.33c5,0,10.06,0,15.09,0a11.1,11.1,0,0,1,11,10.86c.07,11.6.06,23,0,35.05v10.8a2.75,2.75,0,0,1-1.4,2.42A2.63,2.63,0,0,1,36.6,59.5ZM25.69,50.77a18.4,18.4,0,0,1,8.2,1.57c.23.11.44.23.64.35V46c0-12.06,0-23.44,0-35a6.33,6.33,0,0,0-6.34-6.17c-5-.08-10.09-.07-15-.06-2.78,0-5.57,0-8.34,0H4.73v.14q0,22.92,0,45.81h0a.81.81,0,0,0,0,.16H5c2.46,0,4.92,0,7.37,0,3.91,0,7.94,0,11.88-.06C24.72,50.77,25.2,50.77,25.69,50.77Zm-20.94.34h0Z"/></g></g></svg>