<svg xmlns="http://www.w3.org/2000/svg" viewBox="0 0 49.05 61.98"><defs><style>.cls-1{fill:#fff;}</style></defs><g id="Capa_2" data-name="Capa 2"><g id="Capa_2-2" data-name="Capa 2"><path class="cls-1" d="M29,56.23a.14.14,0,0,1-.11.14l-3.22,1.39L25.23,59l-.84,2.62,0,.12a.54.54,0,0,1,0,.1v0a.15.15,0,0,1-.14.13.13.13,0,0,1-.12-.13L23.21,59l-.34-1.09a.13.13,0,0,0-.06-.1l-3.35-1.43h0a.17.17,0,0,1-.06-.11.15.15,0,0,1,.11-.17l3.24-1.32a.07.07,0,0,0,.05,0l1.11-3.44.17-.55,0-.06a.09.09,0,0,1,0-.06.13.13,0,0,1,.08,0,.14.14,0,0,1,.13.12l1.14,3.89a.15.15,0,0,0,.11.12l1.47.61,1.7.7.07,0a.16.16,0,0,1,.1.11.07.07,0,0,1,0,0"/><path class="cls-1" d="M17.63,26.12a7.63,7.63,0,0,1-7.53-6.58,6.45,6.45,0,0,1-.07-1V7.6A7.6,7.6,0,0,1,23,2.24,7.52,7.52,0,0,1,25.24,7.6V18.39l-.11.35a1.6,1.6,0,0,0-.08.36,2,2,0,0,0,0,.48l.06.47L25,20.5A7.63,7.63,0,0,1,17.63,26.12Zm0-21.41A2.9,2.9,0,0,0,14.74,7.6V18.52c0,.12,0,.25,0,.37a2.9,2.9,0,0,0,5.56.7,8.1,8.1,0,0,1,.05-1.08,6.83,6.83,0,0,1,.16-.81V7.6a2.9,2.9,0,0,0-2.9-2.89Z"/><path class="cls-1" d="M24.48,20.4l-3.92-.67,0-2V8.52A8,8,0,0,1,23,2.73,7.43,7.43,0,0,1,28.45.62a7.55,7.55,0,0,1,5.06,2.24,7.44,7.44,0,0,1,2.22,5.36v8.22l-1.6,1.45L33,17.78l-5.38-.7a2.34,2.34,0,0,0-2.48,1.48Zm2.86-8.06a7.42,7.42,0,0,1,.94.06l2.74.36V8.22a2.91,2.91,0,0,0-2.77-2.89,2.66,2.66,0,0,0-2,.8,3.32,3.32,0,0,0-1,2.39v4.14A7,7,0,0,1,27.34,12.34Z"/><path class="cls-1" d="M46.23,20.61l-3.3-1.43a2.72,2.72,0,0,0-.62-.17L31,17.52V9.85A7.6,7.6,0,0,1,44,4.47a7.53,7.53,0,0,1,2.24,5.38Zm-10.5-7.22,5.78.76V9.85a2.89,2.89,0,0,0-.84-2A2.94,2.94,0,0,0,38.62,7a2.9,2.9,0,0,0-2.89,2.89Z"/><path class="cls-1" d="M42,28.38a8.67,8.67,0,0,1-.88-.06L26.44,26.39a6.64,6.64,0,0,1-1.79-.49,6.91,6.91,0,0,1-4.29-5.78,6.68,6.68,0,0,1,0-1.61,6.93,6.93,0,0,1,.26-1.2,7,7,0,0,1,7.65-4.9l14.64,1.93a6.67,6.67,0,0,1,1.88.52A7.06,7.06,0,0,1,49,22.24h0A6.86,6.86,0,0,1,48,25,7,7,0,0,1,42,28.38ZM27.37,17.07a2.38,2.38,0,0,0-2.24,1.65,2.21,2.21,0,0,0-.08.37,2,2,0,0,0,0,.49,2.29,2.29,0,0,0,1.42,2,2.39,2.39,0,0,0,.62.17L41.7,23.64l.31,0a2.32,2.32,0,0,0,2-1.13,2.16,2.16,0,0,0,.32-.91,2.34,2.34,0,0,0-1.39-2.44,2.72,2.72,0,0,0-.62-.17L27.67,17.09A1.51,1.51,0,0,0,27.37,17.07Z"/><path class="cls-1" d="M34.18,57.23A2.38,2.38,0,0,1,32,55.65a2.35,2.35,0,0,1,1.45-3,7.84,7.84,0,0,0,3-2.65,14.28,14.28,0,0,0-.12-3.54c-.22-2.16-.42-4.2.16-5.83A23.32,23.32,0,0,1,40,35a23.72,23.72,0,0,0,2.72-4,41.67,41.67,0,0,0,1-7.43,2.36,2.36,0,1,1,4.7.31c-.07,1.1-.47,6.71-1.31,8.86a24.9,24.9,0,0,1-3.36,5.15,22.6,22.6,0,0,0-2.86,4.32A13.59,13.59,0,0,0,40.94,46a14.87,14.87,0,0,1,0,5.35c-.71,2.46-4,5.1-5.93,5.77A2.36,2.36,0,0,1,34.18,57.23Z"/><path class="cls-1" d="M14.17,57.61a2.83,2.83,0,0,1-.41,0c-2-.36-5.42-2-6.69-4.66-.63-1.33-.63-3.18-.58-6.11A21.13,21.13,0,0,0,6.27,42a18.67,18.67,0,0,0-2.45-3.73,20.37,20.37,0,0,1-3.1-4.94C-.54,29.65.2,19.9.37,18a2.35,2.35,0,1,1,4.69.4c-.37,4.35-.57,11.39.12,13.41a18.86,18.86,0,0,0,2.4,3.64,19.33,19.33,0,0,1,3.17,5.11,21.25,21.25,0,0,1,.45,6.35,21.3,21.3,0,0,0,.14,4,5.8,5.8,0,0,0,3.23,2,2.35,2.35,0,0,1-.4,4.67Z"/><path class="cls-1" d="M24.93,38.53a2.35,2.35,0,0,1-2.35-2.21c-.06-1-.3-5.89.9-8.34C24,26.9,24.59,25.53,25,24.53l.49-1.14.13-.26a2.38,2.38,0,0,1,3.18-1,2.35,2.35,0,0,1,1,3.16l-.06.11-.45,1c-.44,1-1.06,2.47-1.63,3.64-.43.88-.57,3.8-.44,6a2.36,2.36,0,0,1-2.21,2.5Z"/><path class="cls-1" d="M7.55,25.12A7.19,7.19,0,0,1,.36,17.94V9.44a7.19,7.19,0,1,1,14.37,0v8.5A7.19,7.19,0,0,1,7.55,25.12ZM7.55,7A2.48,2.48,0,0,0,5.07,9.44v8.5a2.48,2.48,0,0,0,4.95,0V9.44A2.48,2.48,0,0,0,7.55,7Z"/></g></g></svg>