<svg xmlns="http://www.w3.org/2000/svg" viewBox="0 0 61.13 61.13"><defs><style>.cls-1{fill:#5006f2;}</style></defs><g id="Capa_2" data-name="Capa 2"><g id="Capa_2-2" data-name="Capa 2"><path class="cls-1" d="M0,30.47v-19A11.38,11.38,0,0,1,11.49,0H49.64A11.39,11.39,0,0,1,61.13,11.49V49.64A11.41,11.41,0,0,1,49.64,61.13H11.49A11.39,11.39,0,0,1,0,49.64V30.47M48.31,17.16c-1.3.46-2.51.88-3.71,1.32a1.32,1.32,0,0,1-1.47-.33,7.47,7.47,0,0,0-12.27,4.49,18.59,18.59,0,0,0,0,2.9,21.68,21.68,0,0,1-15.43-7.76,6.9,6.9,0,0,0-1,4,7.62,7.62,0,0,0,3,5.73,1.76,1.76,0,0,0-.14.23l-3-.77c.28,3.72,2.24,6,5.6,7.4l-2.9.15A7.78,7.78,0,0,0,24,39.62a15.56,15.56,0,0,1-10.62,3.19c.18.2.22.29.3.33.36.21.72.43,1.1.62a21.28,21.28,0,0,0,31-18.89A2.17,2.17,0,0,1,46.6,23c1-.82,1.8-1.8,2.7-2.72l-.15-.16-3.6.93a9.14,9.14,0,0,0,2.76-3.87"/></g></g></svg>