<svg xmlns="http://www.w3.org/2000/svg" viewBox="0 0 90.35 60.54"><defs><style>.cls-1{fill:#5006f2;}</style></defs><g id="Capa_2" data-name="Capa 2"><g id="Capa_2-2" data-name="Capa 2"><path class="cls-1" d="M49.72,49.47a.13.13,0,0,1-.09.13L47,50.74l-.32,1L46,53.91l0,.11a.31.31,0,0,1,0,.08h0a.11.11,0,0,1-.11.11s-.09,0-.11-.11L45,51.75l-.27-.89a.19.19,0,0,0-.05-.09s-2.73-1.15-2.77-1.18h0a.11.11,0,0,1,0-.09.12.12,0,0,1,.09-.14l2.67-1.09,0,0,.91-2.84.15-.46a.08.08,0,0,1,0,0,.07.07,0,0,1,0-.06s0,0,.06,0,.09,0,.11.1l.94,3.2a.13.13,0,0,0,.09.11l1.21.5,1.4.58.07,0a.09.09,0,0,1,.07.08.06.06,0,0,1,0,0"/><path class="cls-1" d="M78.4,53.76H60.72a2.36,2.36,0,0,1,0-4.71H78.4a1.38,1.38,0,0,0,1.38-1.38V6.09A1.38,1.38,0,0,0,78.4,4.71H12.89a1.37,1.37,0,0,0-1.36,1.38V47.67a1.37,1.37,0,0,0,1.36,1.38H33a2.36,2.36,0,1,1,0,4.71H12.89a6.08,6.08,0,0,1-6.07-6.09V6.09A6.08,6.08,0,0,1,12.89,0H78.4a6.09,6.09,0,0,1,6.09,6.09V47.67A6.09,6.09,0,0,1,78.4,53.76Z"/><path class="cls-1" d="M29.85,60.54c-10.77,0-19.38,0-20.63-.12-3.78-.28-7.13-4.65-8.78-7.23a2.63,2.63,0,0,1-.13-2.7,2.67,2.67,0,0,1,2.37-1.44H33a2.36,2.36,0,1,1,0,4.71H6.79a5.62,5.62,0,0,0,2.78,2c3.38.25,66.64,0,69.3,0a12.07,12.07,0,0,0,5.22-2H60.72a2.36,2.36,0,0,1,0-4.71h27a2.68,2.68,0,0,1,2.61,3.23c-1.39,7.19-10.68,8.1-11.07,8.13H79C78.65,60.43,50.34,60.54,29.85,60.54Zm55.82-9.18v0ZM4.35,50.58l.08.11A1,1,0,0,0,4.35,50.58Z"/></g></g></svg>