<svg xmlns="http://www.w3.org/2000/svg" viewBox="0 0 34.78 56.32"><defs><style>.cls-1{fill:#ffda00;}</style></defs><g id="Capa_2" data-name="Capa 2"><g id="Capa_2-2" data-name="Capa 2"><path class="cls-1" d="M17.63,34.2A11.18,11.18,0,0,1,7.14,26.53a9.25,9.25,0,0,1-.52-3.1V10.5A9.23,9.23,0,0,1,7.2,7.22,10.93,10.93,0,0,1,17.82,0a10.46,10.46,0,0,1,9.9,7.39,9.11,9.11,0,0,1,.46,2.92V23.69a9.09,9.09,0,0,1-.26,2.2,10.54,10.54,0,0,1-9.77,8.3h-.52M17.56,3.86A7.13,7.13,0,0,0,10.8,8.6a5.41,5.41,0,0,0-.32,1.9V23.43a5.56,5.56,0,0,0,.29,1.82A7.21,7.21,0,0,0,18,30.33,6.66,6.66,0,0,0,24.18,25a5.42,5.42,0,0,0,.14-1.27V10.32a5.52,5.52,0,0,0-.26-1.71,6.74,6.74,0,0,0-6.33-4.75h-.17m8.49,21.57h0Z"/><path class="cls-1" d="M26.25,56.32H8.55a1.93,1.93,0,0,1,0-3.86h17.7a1.93,1.93,0,0,1,0,3.86"/><path class="cls-1" d="M21.52,46.63a.13.13,0,0,1-.1.12L18.65,48,18.31,49l-.72,2.25,0,.11a.24.24,0,0,1,0,.08v0a.12.12,0,0,1-.12.11.11.11,0,0,1-.11-.11L16.57,49l-.29-.94a.13.13,0,0,0-.05-.09s-2.85-1.2-2.89-1.23h0a.15.15,0,0,1-.06-.09.15.15,0,0,1,.1-.16l2.79-1.13,0,0,1-3,.15-.48,0,0a.09.09,0,0,1,0-.05.11.11,0,0,1,.08,0c.05,0,.09,0,.1.11l1,3.35a.12.12,0,0,0,.09.1l1.27.53,1.47.61.06,0a.12.12,0,0,1,.08.09.07.07,0,0,1,0,.05"/><path class="cls-1" d="M17.39,39.85A17.41,17.41,0,0,1,0,22.46a1.93,1.93,0,0,1,3.86,0,13.53,13.53,0,1,0,27.06,0,1.93,1.93,0,0,1,3.86,0A17.41,17.41,0,0,1,17.39,39.85"/></g></g></svg>