<svg xmlns="http://www.w3.org/2000/svg" viewBox="0 0 81.01 59.5"><defs><style>.cls-1{fill:#fff;}</style></defs><g id="Capa_2" data-name="Capa 2"><g id="Capa_2-2" data-name="Capa 2"><path class="cls-1" d="M81,37.1a.11.11,0,0,1-.08.11l-2.43,1-.29.92-.63,2,0,.1a.25.25,0,0,1,0,.07v0a.1.1,0,0,1-.1.09c-.05,0-.08,0-.1-.09l-.65-2.16-.25-.82a.08.08,0,0,0,0-.07l-2.53-1.08h0a.22.22,0,0,1,0-.08A.12.12,0,0,1,73.9,37l2.44-1a0,0,0,0,0,0,0l.83-2.59.14-.42a.08.08,0,0,1,0,0,.05.05,0,0,1,0,0,.07.07,0,0,1,.06,0,.11.11,0,0,1,.1.09l.86,2.93a.11.11,0,0,0,.07.09l1.12.46,1.28.53.05,0s.07.05.07.08a.06.06,0,0,1,0,0"/><path class="cls-1" d="M43.18,59.5a2.63,2.63,0,0,1-1.25-.31,2.73,2.73,0,0,1-1.41-2.42V45.11c0-11.76,0-22.87.05-34.19A11.1,11.1,0,0,1,51.56.06C56.65,0,61.81,0,66.81,0H75a4.73,4.73,0,0,1,3.51,1.28A4.86,4.86,0,0,1,79.76,4.9q0,12.41,0,24.85a2.36,2.36,0,0,1-4.72,0q0-12.43,0-24.87V4.72H75c-2.72,0-5.46,0-8.18,0-5,0-10.13,0-15.18,0A6.36,6.36,0,0,0,45.28,11c-.08,11.3-.07,22.4-.05,34.15v7.59c.2-.12.41-.24.64-.35,3.26-1.57,6.69-1.63,9.64-1.56,4.08.1,8.24.08,12.27.06,2.33,0,4.66,0,7,0h.26V45.5a2.36,2.36,0,0,1,4.72,0v5.17a4.85,4.85,0,0,1-1.31,3.6,5,5,0,0,1-3.71,1.28c-2.31,0-4.62,0-6.94,0-4.06,0-8.25,0-12.4-.07-3.07-.07-5.4.09-7.49,1.1a7.51,7.51,0,0,0-1.43,1,19.07,19.07,0,0,1-1.88,1.44A2.62,2.62,0,0,1,43.18,59.5Zm-1.13-4.38h0Z"/><path class="cls-1" d="M36.6,59.5a2.62,2.62,0,0,1-1.43-.42,18.16,18.16,0,0,1-1.89-1.44,8,8,0,0,0-1.43-1c-2.1-1-4.51-1.17-7.49-1.09-4,.09-8.08.08-12,.06-2.45,0-4.89,0-7.33,0A5,5,0,0,1,1.3,54.26,4.88,4.88,0,0,1,0,50.67H0Q0,27.78,0,4.88A4.89,4.89,0,0,1,1.28,1.29,4.76,4.76,0,0,1,4.79,0h8.39c4.92,0,10,0,15,0a11.1,11.1,0,0,1,11,10.86c.07,11.6.06,23,0,35.06V56.77a2.74,2.74,0,0,1-1.4,2.41A2.53,2.53,0,0,1,36.6,59.5ZM25.7,50.77a18.38,18.38,0,0,1,8.19,1.57c.23.11.44.23.64.35V46c0-12,0-23.44,0-35a6.35,6.35,0,0,0-6.34-6.18c-5-.07-10.06-.06-15,0q-4.2,0-8.4,0H4.73v.14q0,22.92,0,45.81h0a.81.81,0,0,0,0,.16H5c2.46,0,4.92,0,7.38,0,3.9,0,7.93,0,11.87-.05C24.72,50.77,25.2,50.77,25.7,50.77Z"/></g></g></svg>