<svg xmlns="http://www.w3.org/2000/svg" viewBox="0 0 395.9 245.04"><defs><style>.cls-1{fill:#5006f2;}.cls-2{fill:#ffda00;}</style></defs><g id="Capa_2" data-name="Capa 2"><g id="Capa_2-2" data-name="Capa 2"><path class="cls-1" d="M183.35,245c-9.5,0-19-.11-28.15-.36-82.69-2.21-89.26-11.25-89.26-22.86V131a10.76,10.76,0,1,1,21.52,0v85.85c27.44,9.33,174.72,8.82,203.4-.69l0-87.47a10.77,10.77,0,1,1,21.53,0v92.85c-.62,11.61-9.58,17.5-59,21.18-20.55,1.52-45.39,2.33-70,2.33"/><path class="cls-2" d="M366.56,150.15a10.76,10.76,0,0,1-10.76-10.76V87.57a10.77,10.77,0,0,1,21.53,0v51.82a10.77,10.77,0,0,1-10.77,10.76"/><path class="cls-2" d="M188.6,184.42a26.63,26.63,0,0,1-11-2.38L8.73,105.32a14.9,14.9,0,0,1,.1-27.17L179.08,2.23a25.56,25.56,0,0,1,20.62-.12L368.25,75a15,15,0,0,1,.44,27.36L200,181.88a26.75,26.75,0,0,1-11.4,2.54M31,91.82l155.44,70.63a5.26,5.26,0,0,0,4.39,0L346.51,89,191.15,21.85a4.13,4.13,0,0,0-3.29,0Zm-13.41,6,0,0s0,0,0,0m342.11-3.06,0,0ZM13.21,88h0Z"/><path class="cls-1" d="M395.9,191.21a.83.83,0,0,0,0-.32.8.8,0,0,0-.6-.64,2.27,2.27,0,0,0-.44-.19l-10.45-4.32L375.3,182a.89.89,0,0,1-.64-.75l-7-23.85a.83.83,0,0,0-.76-.77.65.65,0,0,0-.49.17.85.85,0,0,0-.28.42,2,2,0,0,0-.12.37l-1.05,3.33-6.81,21.17a.77.77,0,0,1-.34.19l-19.91,8.09a1,1,0,0,0-.31,1.73h0c.31.24,20.61,8.78,20.61,8.78a.92.92,0,0,1,.37.63l7.33,24.25a.8.8,0,0,0,1.6,0l0-.12a3.19,3.19,0,0,0,.17-.58l.22-.77,7.54-23.63,19.78-8.53a.91.91,0,0,0,.66-.9"/></g></g></svg>