<svg xmlns="http://www.w3.org/2000/svg" viewBox="0 0 51.9 78.65"><defs><style>.cls-1{fill:#ffda00;}</style></defs><g id="Capa_2" data-name="Capa 2"><g id="Capa_2-2" data-name="Capa 2"><path class="cls-1" d="M48.87,47.6a.17.17,0,0,1-.14.17l-4,1.37-.58,1.43-1.24,3.08-.06.15a.37.37,0,0,1,0,.11v0c0,.11-.1.15-.17.14s-.13,0-.14-.16l-.78-3.52-.3-1.33a.18.18,0,0,0-.06-.13s-3.85-2-3.91-2h0a.26.26,0,0,1-.06-.13.19.19,0,0,1,.15-.2l4-1.29a.11.11,0,0,0,.06,0l1.65-4,.26-.64a.25.25,0,0,1,0-.07.11.11,0,0,1,.06-.07.12.12,0,0,1,.1,0c.07,0,.13.06.14.16l1,4.77a.18.18,0,0,0,.11.16l1.72.87,2,1,.08,0a.18.18,0,0,1,.11.13s0,0,0,.07"/><path class="cls-1" d="M45.32,17.32a4.2,4.2,0,0,1-3-1.23L35.81,9.56a4.22,4.22,0,0,1,0-6l2.37-2.37a4.22,4.22,0,0,1,3-1.23,4.16,4.16,0,0,1,3,1.24l6.53,6.52a4.22,4.22,0,0,1,0,6L48.3,16.09A4.2,4.2,0,0,1,45.32,17.32Zm.35-4.56h0ZM39.5,6.58l5.82,5.82L47,10.74,41.16,4.92Z"/><path class="cls-1" d="M10.74,52.09a4.2,4.2,0,0,1-3-1.23L1.23,44.33a4.22,4.22,0,0,1,0-6L3.6,36a4.22,4.22,0,0,1,6,0l6.53,6.53a4.22,4.22,0,0,1,0,6l-2.37,2.37A4.2,4.2,0,0,1,10.74,52.09Zm.35-4.57ZM4.92,41.35l5.82,5.82,1.66-1.66L6.58,39.69Z"/><path class="cls-1" d="M32.58,71.66A2.35,2.35,0,0,1,31,67.53c3.88-3.4,6.41-7.12,7.52-11.08a2.36,2.36,0,0,1,4.54,1.28c-1.36,4.85-4.38,9.34-9,13.34A2.37,2.37,0,0,1,32.58,71.66Z"/><path class="cls-1" d="M43.13,39.74a2.35,2.35,0,0,1-2.33-2,24.38,24.38,0,0,0-4.14-10.28,2.35,2.35,0,0,1,3.71-2.9A28.73,28.73,0,0,1,45.46,37a2.36,2.36,0,0,1-2,2.68Z"/><path class="cls-1" d="M17.37,48.57a4.57,4.57,0,0,1-3.25-1.35L4.68,37.79a4.61,4.61,0,0,1,0-6.52L31.17,4.78a4.62,4.62,0,0,1,6.51,0l9.44,9.44a4.6,4.6,0,0,1,0,6.51L20.63,47.22A4.6,4.6,0,0,1,17.37,48.57Zm-9.28-14,9.28,9.28L43.73,17.46,34.42,8.19Z"/><path class="cls-1" d="M43.47,78.65H4.23a4.1,4.1,0,0,1-4.09-4.1V71a4.1,4.1,0,0,1,4.09-4.1H43.47a4.11,4.11,0,0,1,4.1,4.1v3.51A4.11,4.11,0,0,1,43.47,78.65ZM4.85,73.93h38V71.65h-38Z"/></g></g></svg>