<svg xmlns="http://www.w3.org/2000/svg" viewBox="0 0 45.21 51.95"><defs><style>.cls-1{fill:#fff;}</style></defs><g id="Capa_2" data-name="Capa 2"><g id="Capa_2-2" data-name="Capa 2"><path class="cls-1" d="M23.6,24.89A12.45,12.45,0,1,1,36.05,12.45,12.46,12.46,0,0,1,23.6,24.89m0-21a8.59,8.59,0,1,0,8.59,8.59A8.6,8.6,0,0,0,23.6,3.86"/><path class="cls-1" d="M43.28,50.38a1.93,1.93,0,0,1-1.93-1.93A17.76,17.76,0,0,0,10.76,36.18a18,18,0,0,0-2.9,4,1.93,1.93,0,0,1-3.41-1.79,21.62,21.62,0,0,1,40.76,10,1.94,1.94,0,0,1-1.93,1.93"/><path class="cls-1" d="M8.67,46.73a.14.14,0,0,1-.1.14L5.65,48.12l-.36,1.12-.75,2.37,0,.12a.31.31,0,0,1,0,.08v0c0,.08-.07.12-.12.12a.12.12,0,0,1-.12-.12l-.78-2.59-.3-1a.15.15,0,0,0-.06-.09s-3-1.27-3-1.3h0A.18.18,0,0,1,0,46.77a.16.16,0,0,1,.1-.17L3,45.41s0,0,0,0l1-3.12.15-.5,0,0a.09.09,0,0,1,0-.06.11.11,0,0,1,.07,0q.09,0,.12.12l1,3.52a.14.14,0,0,0,.1.11L7,45.93l1.54.63.06,0a.11.11,0,0,1,.09.1.06.06,0,0,1,0,0"/></g></g></svg>