<svg xmlns="http://www.w3.org/2000/svg" viewBox="0 0 61.13 61.13"><defs><style>.cls-1{fill:#ffda00;}.cls-2{fill:#fff;}</style></defs><g id="Capa_2" data-name="Capa 2"><g id="Capa_2-2" data-name="Capa 2"><rect class="cls-1" width="61.13" height="61.13" rx="11.4"/><path class="cls-2" d="M22.15,42.16l.07.06s0,0,0,0h0a.93.93,0,0,0,.28.37,5.69,5.69,0,0,0,4.77,1.82,5.74,5.74,0,0,0,5.24-5.75q0-13.48,0-27c0-.18,0-.23.23-.23h4.76A9.4,9.4,0,0,0,40.64,17a5.48,5.48,0,0,0,1.1.81h0s0,0,0,0A.55.55,0,0,1,42,18,6.32,6.32,0,0,0,43,19a9.2,9.2,0,0,0,3.9,1.82h0a1.85,1.85,0,0,0,0,.23V26c0,.27,0,.24-.25.24a17.52,17.52,0,0,1-2-.16,16.58,16.58,0,0,1-4.31-1.22,17.85,17.85,0,0,1-2.83-1.59s-.07-.08-.09,0,0,.1,0,.15V37.43a12.55,12.55,0,0,1-3.34,8.18,12.4,12.4,0,0,1-10.15,4,12.12,12.12,0,0,1-4.64-1.23c-.45-.22-.88-.49-1.32-.72h0s0,0-.08-.06l-.15-.12s0-.1-.11-.09h0c0-.09-.08-.13-.13-.18-.29-.33-.57-.67-.83-1a12.52,12.52,0,0,1-2.44-6.45,12.23,12.23,0,0,1,.16-3.31,12.61,12.61,0,0,1,4.89-7.86,12.48,12.48,0,0,1,4.3-2.06,10.5,10.5,0,0,1,3-.4c0,.81,0,1.63,0,2.44s0,1.89,0,2.84v.08a0,0,0,0,0,0,0l-.13,0a5.76,5.76,0,0,0-6.48,8.63A5.55,5.55,0,0,0,22.15,42.16Z"/><path class="cls-2" d="M37.51,23.22a17.85,17.85,0,0,0,2.83,1.59A16.58,16.58,0,0,0,44.65,26a17.52,17.52,0,0,0,2,.16c.29,0,.25,0,.25-.24v-4.9a1.85,1.85,0,0,1,0-.23c.41.05.81.14,1.22.16.2,0,.4,0,.6,0s.17,0,.17.17c0,.71,0,1.42,0,2.12,0,1.46,0,2.91,0,4.37,0,.15,0,.19-.19.19a17.74,17.74,0,0,1-3.41-.4,16.46,16.46,0,0,1-5-2.05l-.75-.5c-.09-.06-.13-.06-.13.07V38.54a12.63,12.63,0,0,1-8.28,12,12,12,0,0,1-4.16.76,12.46,12.46,0,0,1-8.58-3.19,1.57,1.57,0,0,1-.44-.45c.44.23.87.5,1.32.72a12.12,12.12,0,0,0,4.64,1.23,12.4,12.4,0,0,0,10.15-4,12.55,12.55,0,0,0,3.34-8.18c.06-.07,0-.16,0-.24q0-6.85,0-13.72C37.46,23.39,37.42,23.29,37.51,23.22Z"/><path class="cls-2" d="M22.15,42.16a5.55,5.55,0,0,1-2.22-2,5.76,5.76,0,0,1,6.48-8.63l.13,0s0,0,0,0v-.08c.06-.06,0-.14,0-.22V26.12a10.38,10.38,0,0,1,1.85.09.11.11,0,0,1,.11.12.48.48,0,0,0,0,.12V33c0,.24,0,.24-.23.18a5.74,5.74,0,0,0-6.81,3.27A5.65,5.65,0,0,0,22.09,42Z"/><path class="cls-2" d="M41.74,17.8a5.48,5.48,0,0,1-1.1-.81,9.4,9.4,0,0,1-3.1-5.51h1.77c.1,0,.13,0,.12.13v.19a8.41,8.41,0,0,0,.85,3.72,9,9,0,0,0,1.37,2.13C41.68,17.69,41.76,17.72,41.74,17.8Z"/></g></g></svg>