<svg xmlns="http://www.w3.org/2000/svg" viewBox="0 0 72.53 50.95"><defs><style>.cls-1{fill:#5006f2;}</style></defs><g id="Capa_2" data-name="Capa 2"><g id="Capa_2-2" data-name="Capa 2"><path class="cls-1" d="M35.06,51c-7.52-.43-16.33-.82-25.11-1.51C5,49,2.22,46.58,1.41,41.76a95.74,95.74,0,0,1,.1-33.34,8.3,8.3,0,0,1,8-7.23C19.86.61,30.19.06,40.53,0,48,0,55.5.6,63,1.17c4.44.34,7.26,3,8.19,7.35,1.57,7.39,1.5,14.9,1.19,22.4a74.22,74.22,0,0,1-1.13,10.74c-1,5.4-4.22,7.77-10.72,8.15-8,.47-16.09.73-25.44,1.14M48.13,25.29l-19-11v22l19-11"/></g></g></svg>